<?xml version="1.0" standalone="no"?>
<!DOCTYPE svg PUBLIC "-//W3C//DTD SVG 20010904//EN"
 "http://www.w3.org/TR/2001/REC-SVG-20010904/DTD/svg10.dtd">
<svg version="1.0" xmlns="http://www.w3.org/2000/svg"
 width="457.000000pt" height="457.000000pt" viewBox="0 0 457.000000 457.000000"
 preserveAspectRatio="xMidYMid meet">
<metadata>
Created by potrace 1.11, written by Peter Selinger 2001-2013
</metadata>
<g transform="translate(0.000000,457.000000) scale(0.100000,-0.100000)"
fill="#000000" stroke="none">
<path d="M2230 4221 c0 -3 -28 -6 -63 -6 -34 0 -64 -2 -67 -6 -3 -3 -41 -15
-85 -26 -44 -12 -93 -27 -110 -34 -16 -7 -33 -12 -37 -11 -5 1 -8 -3 -8 -9 0
-5 -4 -7 -10 -4 -5 3 -10 1 -10 -6 0 -7 -3 -10 -6 -6 -8 8 -85 -33 -79 -43 3
-5 -4 -6 -15 -3 -11 3 -20 0 -20 -6 0 -6 -7 -11 -15 -11 -8 0 -15 -4 -15 -10
0 -5 -6 -10 -13 -10 -7 0 -23 -9 -35 -20 -12 -12 -22 -18 -22 -15 0 3 -8 -3
-18 -12 -11 -10 -31 -26 -45 -37 -15 -10 -24 -23 -20 -29 3 -6 1 -7 -6 -3 -6
4 -14 0 -17 -8 -3 -9 -11 -13 -17 -9 -6 4 -8 0 -4 -11 4 -9 3 -15 -3 -11 -9 6
-50 -32 -50 -47 0 -5 -4 -6 -10 -3 -5 3 -10 0 -10 -7 0 -8 -9 -20 -21 -28 -11
-8 -30 -32 -41 -52 -12 -21 -26 -38 -30 -38 -5 0 -7 -4 -3 -9 3 -6 -4 -15 -16
-21 -14 -8 -19 -18 -16 -32 3 -11 3 -18 0 -15 -9 9 -31 -17 -26 -30 3 -7 1
-13 -5 -13 -10 0 -38 -60 -34 -72 1 -5 -3 -8 -8 -8 -6 0 -10 -7 -10 -15 0 -8
-4 -23 -9 -33 -11 -20 -24 -53 -27 -67 -1 -5 -3 -13 -4 -17 -1 -5 -4 -12 -5
-18 -1 -5 -4 -12 -5 -15 -1 -3 -3 -9 -4 -14 0 -5 -4 -13 -8 -17 -16 -15 -7
-26 10 -13 16 13 16 12 -1 -7 -10 -12 -20 -36 -22 -55 -20 -162 -23 -209 -13
-209 4 0 8 -5 8 -11 0 -5 -3 -8 -8 -5 -13 8 -2 -121 13 -143 3 -6 2 -11 -4
-11 -7 0 -7 -8 -1 -24 7 -18 5 -29 -9 -45 -10 -11 -21 -18 -24 -14 -4 3 -17
-2 -29 -13 -12 -10 -18 -13 -14 -7 5 9 2 11 -8 7 -9 -3 -16 -10 -16 -14 0 -5
-14 -11 -30 -15 -17 -4 -30 -11 -30 -16 0 -6 -4 -7 -10 -4 -5 3 -10 1 -10 -4
0 -6 -7 -11 -15 -11 -8 0 -15 -5 -15 -11 0 -5 -4 -7 -10 -4 -5 3 -10 1 -10 -6
0 -7 -3 -10 -6 -6 -6 5 -57 -28 -90 -58 -6 -5 -23 -19 -39 -30 -42 -31 -85
-73 -85 -85 0 -6 -4 -9 -9 -6 -4 3 -23 -13 -42 -35 -19 -23 -44 -53 -56 -67
-12 -14 -27 -37 -35 -51 -7 -14 -23 -37 -36 -51 -12 -14 -25 -36 -29 -50 -4
-14 -13 -31 -20 -39 -8 -8 -12 -22 -10 -32 3 -13 0 -16 -11 -12 -10 4 -13 2
-8 -5 3 -6 2 -13 -4 -17 -6 -4 -8 -11 -5 -16 4 -5 1 -9 -5 -9 -7 0 -10 -6 -7
-14 3 -8 1 -16 -5 -18 -6 -2 -11 -18 -12 -35 0 -17 -4 -29 -8 -26 -5 2 -9 -3
-9 -11 -2 -23 -4 -30 -10 -41 -3 -5 -5 -19 -5 -30 1 -11 -5 -27 -13 -35 -10
-10 -10 -15 -2 -18 6 -2 8 -9 4 -15 -10 -16 -13 -32 -17 -87 -2 -25 -5 -47 -6
-50 -6 -14 -4 -36 4 -47 5 -9 4 -13 -4 -13 -10 0 -10 -3 0 -15 7 -9 8 -15 2
-15 -11 0 -11 -18 1 -37 5 -8 3 -13 -3 -13 -7 0 -8 -5 -3 -12 4 -7 8 -29 9
-48 1 -19 3 -37 4 -40 1 -3 2 -9 1 -14 -1 -5 1 -16 5 -25 4 -9 8 -29 10 -46 2
-16 5 -36 6 -42 1 -7 6 -13 11 -13 5 0 7 -6 4 -14 -3 -8 -3 -17 1 -21 4 -4 8
-11 8 -16 1 -5 2 -10 4 -11 1 -2 3 -12 5 -23 2 -11 9 -21 15 -23 5 -2 8 -8 5
-13 -3 -5 0 -19 7 -31 7 -13 13 -25 13 -28 2 -18 72 -145 91 -165 13 -14 24
-29 24 -33 1 -18 63 -92 72 -86 6 4 8 2 5 -3 -8 -13 40 -66 53 -58 5 3 7 0 4
-9 -3 -9 2 -17 15 -21 12 -3 19 -10 16 -15 -3 -4 6 -15 19 -24 14 -8 36 -27
50 -41 14 -14 30 -25 36 -25 5 0 10 -4 10 -10 0 -5 6 -10 14 -10 8 0 16 -3 18
-7 5 -12 66 -53 78 -53 5 0 10 -4 10 -10 0 -5 9 -10 19 -10 11 0 21 -4 23 -9
2 -5 12 -11 23 -13 11 -1 26 -9 33 -16 8 -7 17 -10 22 -7 5 3 10 2 12 -3 8
-20 282 -91 296 -77 3 3 11 0 19 -6 10 -9 17 -8 30 2 9 8 14 9 10 2 -5 -8 4
-11 30 -11 21 0 43 -1 48 -2 9 -2 58 0 130 3 17 1 33 6 37 11 4 6 12 5 21 -3
11 -8 17 -9 22 -1 3 6 11 7 17 4 8 -5 9 -1 4 12 -5 14 -4 16 4 8 8 -8 24 -9
53 -2 23 6 49 11 57 12 9 1 21 5 28 10 6 4 20 9 31 11 10 2 44 15 75 29 31 14
60 26 65 26 5 0 14 7 21 15 7 9 15 13 18 11 3 -3 17 3 31 13 14 10 34 21 44
24 9 4 17 10 17 15 0 5 14 15 30 22 17 7 30 16 30 21 0 5 7 9 16 9 8 0 12 5 9
10 -3 6 1 10 9 10 9 0 16 4 16 9 0 18 35 17 55 -1 10 -10 25 -16 32 -14 7 3
12 1 10 -3 -3 -14 44 -51 57 -44 6 3 7 2 3 -2 -8 -10 88 -75 110 -75 7 0 13
-4 13 -8 0 -8 57 -32 74 -31 5 0 12 -3 15 -9 7 -11 128 -52 153 -52 10 0 18
-4 18 -8 0 -4 10 -9 23 -9 62 -4 104 -10 116 -18 10 -6 12 -4 6 6 -7 11 -6 12
6 3 15 -13 279 -16 279 -4 0 3 16 6 35 5 19 -1 35 3 35 8 0 6 3 7 6 4 4 -3 16
-2 27 4 14 8 18 8 13 0 -10 -16 0 -13 18 5 10 10 16 11 16 3 0 -8 4 -8 13 -1
6 5 28 13 47 18 19 4 37 8 40 9 38 10 89 39 83 49 -4 6 2 4 12 -4 17 -13 18
-13 13 1 -5 12 -2 16 11 12 10 -2 25 2 33 11 9 8 18 12 22 9 3 -3 8 2 12 11 3
9 10 13 15 10 5 -3 9 0 9 6 0 6 5 8 10 5 6 -3 10 -1 10 4 0 6 6 11 13 11 7 0
20 9 30 20 9 11 22 20 29 20 7 0 39 24 70 54 32 29 60 51 63 48 3 -3 5 -1 5 4
0 6 25 36 55 68 32 33 52 63 48 69 -3 7 -3 9 1 5 5 -4 24 14 43 39 28 36 32
48 21 55 -10 8 -10 9 2 5 16 -4 61 63 63 95 1 9 4 15 8 12 10 -6 30 56 22 69
-3 5 -1 7 4 4 12 -8 26 20 17 34 -3 5 0 9 6 9 6 0 8 5 5 10 -3 6 -1 10 5 10 7
0 10 7 7 15 -4 8 -3 17 2 19 10 6 35 115 32 139 -1 9 1 17 6 17 4 0 8 25 8 55
0 30 3 55 6 55 7 0 4 64 -5 78 -3 6 -3 13 2 16 11 7 5 85 -8 101 -8 10 -8 15
1 21 8 5 9 3 4 -6 -5 -9 -4 -11 3 -6 9 5 9 13 0 29 -6 12 -13 39 -14 61 -2 21
-10 62 -19 92 -8 30 -15 56 -15 59 0 3 -7 19 -15 35 -8 16 -16 33 -18 37 -1 5
-6 7 -12 5 -5 -2 -5 2 2 8 9 10 6 23 -13 56 -14 24 -22 44 -19 44 3 0 -8 20
-25 44 -16 25 -30 49 -30 55 0 6 -4 11 -10 11 -5 0 -10 7 -10 15 0 8 -4 15
-10 15 -5 0 -10 4 -10 10 0 12 -23 42 -71 92 -20 21 -35 39 -34 40 1 2 -22 26
-51 55 -30 28 -54 46 -54 40 0 -7 -6 -3 -12 8 -17 29 -51 55 -66 50 -7 -3 -11
-1 -8 4 3 5 -9 16 -27 25 -17 8 -28 16 -22 16 5 0 -6 8 -25 19 -19 10 -38 17
-42 14 -5 -2 -8 1 -8 6 0 6 -9 11 -21 11 -11 0 -17 5 -14 10 3 6 -3 10 -14 10
-12 0 -21 4 -21 10 0 5 -7 7 -15 4 -8 -4 -15 -1 -15 6 0 7 -6 10 -13 7 -7 -3
-20 0 -28 7 -19 13 -30 64 -17 72 5 3 3 13 -4 22 -9 10 -9 13 -1 9 7 -5 12 -1
12 10 0 10 1 37 3 61 2 23 -1 42 -7 42 -6 0 -6 3 1 8 10 7 13 98 3 117 -2 6
-4 27 -4 48 1 20 -1 37 -5 37 -3 0 -5 15 -4 33 0 17 -2 37 -5 42 -3 6 -7 19
-8 30 -2 10 -9 23 -16 27 -9 6 -8 8 3 8 11 0 11 3 2 12 -7 7 -12 19 -12 27 0
29 -33 101 -43 94 -6 -4 -7 -1 -3 6 10 15 -13 73 -25 65 -5 -3 -6 2 -3 11 4 9
0 23 -8 33 -8 9 -21 32 -29 50 -8 17 -17 32 -21 32 -5 0 -8 7 -8 15 0 8 -4 15
-8 15 -4 0 -15 13 -24 28 -10 16 -33 46 -53 67 -19 21 -35 43 -35 48 0 4 -4 5
-10 2 -5 -3 -10 0 -10 7 0 8 -13 25 -30 38 -16 14 -50 44 -77 68 -26 23 -53
40 -61 37 -7 -2 -11 -1 -8 4 6 9 -66 61 -84 61 -5 0 -10 4 -10 8 0 4 -16 14
-35 21 -19 7 -35 17 -35 22 0 5 -5 9 -11 9 -5 0 -7 -6 -3 -12 4 -7 -4 -2 -19
11 -14 12 -30 20 -35 17 -6 -3 -12 -1 -14 5 -2 6 -16 12 -31 12 -15 1 -27 5
-27 9 0 6 -46 19 -80 23 -3 0 -10 3 -16 7 -6 4 -27 8 -47 10 -21 1 -37 5 -37
8 0 6 -12 7 -182 13 -65 2 -118 1 -118 -2z m30 -67 c0 -8 -19 -13 -24 -6 -3 5
1 9 9 9 8 0 15 -2 15 -3z m430 -24 c0 -5 -5 -10 -11 -10 -5 0 -7 5 -4 10 3 6
8 10 11 10 2 0 4 -4 4 -10z m-405 -48 c-3 -3 -11 0 -18 7 -9 10 -8 11 6 5 10
-3 15 -9 12 -12z m-315 -70 c0 -5 -7 -9 -15 -9 -8 0 -12 4 -9 9 3 4 9 8 15 8
5 0 9 -4 9 -8z m480 -4 c0 -4 -4 -8 -9 -8 -6 0 -12 4 -15 8 -3 5 1 9 9 9 8 0
15 -4 15 -9z m-670 -12 c0 -2 -8 -10 -17 -17 -16 -13 -17 -12 -4 4 13 16 21
21 21 13z m364 -72 c3 -8 2 -12 -4 -9 -6 3 -10 10 -10 16 0 14 7 11 14 -7z
m546 -74 c0 -5 -4 -10 -10 -10 -5 0 -10 5 -10 10 0 6 5 10 10 10 6 0 10 -4 10
-10z m276 -115 c-1 -8 -5 -17 -8 -21 -5 -4 -4 16 1 34 3 9 9 -1 7 -13z m-405
-98 c-10 -9 -11 -8 -5 6 3 10 9 15 12 12 3 -3 0 -11 -7 -18z m249 -67 c0 -5
-4 -10 -10 -10 -5 0 -10 5 -10 10 0 6 5 10 10 10 6 0 10 -4 10 -10z m-834
-362 c3 -4 -1 -5 -10 -4 -8 1 -18 5 -22 8 -3 4 1 5 10 4 8 -1 18 -5 22 -8z
m234 2 c0 -5 -4 -10 -10 -10 -5 0 -10 5 -10 10 0 6 5 10 10 10 6 0 10 -4 10
-10z m1115 -88 c-3 -3 -11 0 -18 7 -9 10 -8 11 6 5 10 -3 15 -9 12 -12z
m-2025 -46 c0 -2 -8 -10 -17 -17 -16 -13 -17 -12 -4 4 13 16 21 21 21 13z
m1150 -26 c0 -5 -4 -10 -10 -10 -5 0 -10 5 -10 10 0 6 5 10 10 10 6 0 10 -4
10 -10z m-394 -82 c3 -4 -1 -5 -10 -4 -8 1 -18 5 -22 8 -3 4 1 5 10 4 8 -1 18
-5 22 -8z m189 -6 c-3 -3 -11 0 -18 7 -9 10 -8 11 6 5 10 -3 15 -9 12 -12z
m210 -71 c-9 -8 -36 -10 -30 -2 2 4 11 8 20 8 8 0 13 -3 10 -6z m1110 -249
c-3 -3 -11 0 -18 7 -9 10 -8 11 6 5 10 -3 15 -9 12 -12z m-2555 -72 c0 -5 -4
-10 -10 -10 -5 0 -10 5 -10 10 0 6 5 10 10 10 6 0 10 -4 10 -10z m-246 -38 c3
-5 -1 -9 -9 -9 -8 0 -12 4 -9 9 3 4 7 8 9 8 2 0 6 -4 9 -8z m2731 -122 c-3 -5
-12 -10 -18 -10 -7 0 -6 4 3 10 19 12 23 12 15 0z m321 -2 c3 -4 -1 -5 -10 -4
-8 1 -18 5 -22 8 -3 4 1 5 10 4 8 -1 18 -5 22 -8z m-2726 -72 c0 -2 -7 -7 -16
-10 -8 -3 -12 -2 -9 4 6 10 25 14 25 6z m2646 -408 c3 -4 -1 -5 -10 -4 -8 1
-18 5 -22 8 -3 4 1 5 10 4 8 -1 18 -5 22 -8z m435 -55 c13 -16 12 -17 -3 -4
-17 13 -22 21 -14 21 2 0 10 -8 17 -17z m-2346 -12 c3 -5 2 -12 -3 -15 -5 -3
-9 1 -9 9 0 17 3 19 12 6z m-411 -89 c3 -5 -1 -9 -9 -9 -8 0 -15 4 -15 9 0 4
4 8 9 8 6 0 12 -4 15 -8z m1806 -18 c0 -8 -19 -13 -24 -6 -3 5 1 9 9 9 8 0 15
-2 15 -3z m-90 -24 c0 -5 -4 -10 -10 -10 -5 0 -10 5 -10 10 0 6 5 10 10 10 6
0 10 -4 10 -10z m-2084 -86 c1 -9 0 -13 -4 -10 -3 4 -7 14 -8 22 -1 9 0 13 4
10 3 -4 7 -14 8 -22z m2564 6 c0 -5 -4 -10 -10 -10 -5 0 -10 5 -10 10 0 6 5
10 10 10 6 0 10 -4 10 -10z m-2880 -80 c0 -5 -4 -10 -10 -10 -5 0 -10 5 -10
10 0 6 5 10 10 10 6 0 10 -4 10 -10z m3280 -54 c0 -2 -7 -7 -16 -10 -8 -3 -12
-2 -9 4 6 10 25 14 25 6z m170 0 c0 -2 -8 -10 -17 -17 -16 -13 -17 -12 -4 4
13 16 21 21 21 13z m-1210 -26 c0 -5 -4 -10 -10 -10 -5 0 -10 5 -10 10 0 6 5
10 10 10 6 0 10 -4 10 -10z m-1920 -80 c0 -5 -4 -10 -10 -10 -5 0 -10 5 -10
10 0 6 5 10 10 10 6 0 10 -4 10 -10z m2560 0 c0 -5 -4 -10 -10 -10 -5 0 -10 5
-10 10 0 6 5 10 10 10 6 0 10 -4 10 -10z m-299 -37 c13 -16 12 -17 -3 -4 -17
13 -22 21 -14 21 2 0 10 -8 17 -17z m-2207 -9 c3 -8 2 -12 -4 -9 -6 3 -10 10
-10 16 0 14 7 11 14 -7z m306 -74 c0 -5 -4 -10 -10 -10 -5 0 -10 5 -10 10 0 6
5 10 10 10 6 0 10 -4 10 -10z m1717 -45 c0 -8 -4 -12 -9 -9 -4 3 -8 9 -8 15 0
5 4 9 8 9 5 0 9 -7 9 -15z m-1441 -70 c-1 -8 -5 -17 -8 -21 -5 -4 -4 16 1 34
3 9 9 -1 7 -13z m1164 -45 c0 -5 -4 -10 -10 -10 -5 0 -10 5 -10 10 0 6 5 10
10 10 6 0 10 -4 10 -10z m-1889 -27 c13 -16 12 -17 -3 -4 -10 7 -18 15 -18 17
0 8 8 3 21 -13z m-421 -9 c0 -8 -19 -13 -24 -6 -3 5 1 9 9 9 8 0 15 -2 15 -3z
m990 -84 c0 -5 -4 -10 -10 -10 -5 0 -10 5 -10 10 0 6 5 10 10 10 6 0 10 -4 10
-10z m1050 -54 c0 -2 -8 -10 -17 -17 -16 -13 -17 -12 -4 4 13 16 21 21 21 13z
m-1054 -192 c1 -9 0 -13 -4 -10 -3 4 -7 14 -8 22 -1 9 0 13 4 10 3 -4 7 -14 8
-22z m1417 -29 c-3 -9 -8 -14 -10 -11 -3 3 -2 9 2 15 9 16 15 13 8 -4z m-1878
-4 c3 -5 2 -12 -3 -15 -5 -3 -9 1 -9 9 0 17 3 19 12 6z m629 1 c3 -5 -1 -9 -9
-9 -8 0 -12 4 -9 9 3 4 7 8 9 8 2 0 6 -4 9 -8z m922 -84 c3 -4 -1 -5 -10 -4
-8 1 -18 5 -22 8 -3 4 1 5 10 4 8 -1 18 -5 22 -8z m238 0 c-3 -4 -9 -8 -15 -8
-5 0 -9 4 -9 8 0 5 7 9 15 9 8 0 12 -4 9 -9z m-107 -83 c0 -8 -4 -12 -9 -9 -5
3 -6 10 -3 15 9 13 12 11 12 -6z m268 6 c-9 -8 -36 -10 -30 -2 2 4 11 8 20 8
8 0 13 -3 10 -6z"/>
</g>
</svg>
