<?xml version="1.0" encoding="UTF-8" standalone="no"?>
<!-- Generator: Adobe Illustrator 21.0.0, SVG Export Plug-In . SVG Version: 6.00 Build 0)  -->

<svg
   xmlns:dc="http://purl.org/dc/elements/1.1/"
   xmlns:cc="http://creativecommons.org/ns#"
   xmlns:rdf="http://www.w3.org/1999/02/22-rdf-syntax-ns#"
   xmlns:svg="http://www.w3.org/2000/svg"
   xmlns="http://www.w3.org/2000/svg"
   xmlns:xlink="http://www.w3.org/1999/xlink"
   xmlns:sodipodi="http://sodipodi.sourceforge.net/DTD/sodipodi-0.dtd"
   xmlns:inkscape="http://www.inkscape.org/namespaces/inkscape"
   version="1.1"
   id="Layer_1"
   x="0px"
   y="0px"
   viewBox="0 0 52.699997 58.119622"
   xml:space="preserve"
   sodipodi:docname="farmacoop-iso.svg"
   width="52.699997"
   height="58.119621"
   inkscape:version="0.92.3 (2405546, 2018-03-11)"><metadata
   id="metadata165"><rdf:RDF><cc:Work
       rdf:about=""><dc:format>image/svg+xml</dc:format><dc:type
         rdf:resource="http://purl.org/dc/dcmitype/StillImage" /></cc:Work></rdf:RDF></metadata><defs
   id="defs163" /><sodipodi:namedview
   pagecolor="#ffffff"
   bordercolor="#666666"
   borderopacity="1"
   objecttolerance="10"
   gridtolerance="10"
   guidetolerance="10"
   inkscape:pageopacity="0"
   inkscape:pageshadow="2"
   inkscape:window-width="1920"
   inkscape:window-height="1007"
   id="namedview161"
   showgrid="false"
   inkscape:zoom="2.6116838"
   inkscape:cx="-62.290133"
   inkscape:cy="14.819621"
   inkscape:window-x="0"
   inkscape:window-y="39"
   inkscape:window-maximized="1"
   inkscape:current-layer="Layer_1" />
<style
   type="text/css"
   id="style2">
	.st0{opacity:0.75;}
	.st1{clip-path:url(#SVGID_2_);fill:#00ADCA;}
	.st2{clip-path:url(#SVGID_4_);fill:#00ADCA;}
	.st3{clip-path:url(#SVGID_6_);fill:#00ADCA;}
	.st4{clip-path:url(#SVGID_8_);fill:#00ADCA;}
	.st5{clip-path:url(#SVGID_10_);fill:#00ADCA;}
	.st6{opacity:0.4;}
	.st7{clip-path:url(#SVGID_12_);fill:#00ADCA;}
	.st8{clip-path:url(#SVGID_14_);fill:#00ADCA;}
	.st9{clip-path:url(#SVGID_16_);fill:#00ADCA;}
	.st10{clip-path:url(#SVGID_18_);fill:#00ADCA;}
	.st11{opacity:0.5;}
	.st12{clip-path:url(#SVGID_20_);fill:#00ADCA;}
	.st13{clip-path:url(#SVGID_22_);fill:#00ADCA;}
	.st14{clip-path:url(#SVGID_24_);fill:#00ADCA;}
	.st15{clip-path:url(#SVGID_26_);fill:#00ADCA;}
</style>









<g
   class="st11"
   id="g122"
   style="opacity:0.5"
   transform="translate(-46.400002)">
	<g
   id="g120">
		<defs
   id="defs113">
			<rect
   id="SVGID_19_"
   x="70"
   y="14.5"
   width="29.1"
   height="29.1" />
		</defs>
		<clipPath
   id="SVGID_20_">
			<use
   xlink:href="#SVGID_19_"
   style="overflow:visible"
   id="use115"
   x="0"
   y="0"
   width="100%"
   height="100%" />
		</clipPath>
		<path
   class="st12"
   d="M 99,27.2 C 100.2,36.7 92.2,44.7 82.7,43.5 76.2,42.7 71,37.5 70.2,31 69,21.5 77,13.5 86.5,14.7 c 6.4,0.8 11.7,6 12.5,12.5"
   clip-path="url(#SVGID_20_)"
   id="path118"
   inkscape:connector-curvature="0"
   style="fill:#00adca" />
	</g>
</g>
<g
   class="st11"
   id="g134"
   style="opacity:0.5"
   transform="translate(-46.400002)">
	<g
   id="g132">
		<defs
   id="defs125">
			<rect
   id="SVGID_21_"
   x="46.400002"
   y="14.5"
   width="29.1"
   height="29.1" />
		</defs>
		<clipPath
   id="SVGID_22_">
			<use
   xlink:href="#SVGID_21_"
   style="overflow:visible"
   id="use127"
   x="0"
   y="0"
   width="100%"
   height="100%" />
		</clipPath>
		<path
   class="st13"
   d="M 75.3,27.2 C 76.5,36.7 68.5,44.7 59,43.5 52.5,42.7 47.3,37.5 46.5,31 45.3,21.5 53.3,13.5 62.8,14.7 c 6.5,0.8 11.7,6 12.5,12.5"
   clip-path="url(#SVGID_22_)"
   id="path130"
   inkscape:connector-curvature="0"
   style="fill:#00adca" />
	</g>
</g>
<g
   class="st11"
   id="g146"
   style="opacity:0.5"
   transform="translate(-46.400002)">
	<g
   id="g144">
		<defs
   id="defs137">
			<rect
   id="SVGID_23_"
   x="58.200001"
   width="29.1"
   height="29.1"
   y="0" />
		</defs>
		<clipPath
   id="SVGID_24_">
			<use
   xlink:href="#SVGID_23_"
   style="overflow:visible"
   id="use139"
   x="0"
   y="0"
   width="100%"
   height="100%" />
		</clipPath>
		<path
   class="st14"
   d="m 70.8,0.1 c 9.5,-1.2 17.5,6.8 16.3,16.3 -0.8,6.5 -6,11.7 -12.5,12.5 C 65.1,30.1 57.1,22.1 58.3,12.6 59.1,6.2 64.4,0.9 70.8,0.1"
   clip-path="url(#SVGID_24_)"
   id="path142"
   inkscape:connector-curvature="0"
   style="fill:#00adca" />
	</g>
</g>
<g
   class="st11"
   id="g158"
   style="opacity:0.5"
   transform="translate(-46.400002)">
	<g
   id="g156">
		<defs
   id="defs149">
			<rect
   id="SVGID_25_"
   x="58.200001"
   y="29.1"
   width="29.1"
   height="29.1" />
		</defs>
		<clipPath
   id="SVGID_26_">
			<use
   xlink:href="#SVGID_25_"
   style="overflow:visible"
   id="use151"
   x="0"
   y="0"
   width="100%"
   height="100%" />
		</clipPath>
		<path
   class="st15"
   d="M 70.8,29.2 C 80.4,28 88.4,36 87.2,45.5 86.4,52 81.2,57.2 74.7,58 65.2,59.2 57.2,51.2 58.4,41.7 59.1,35.2 64.4,30 70.8,29.2"
   clip-path="url(#SVGID_26_)"
   id="path154"
   inkscape:connector-curvature="0"
   style="fill:#00adca" />
	</g>
</g>
</svg>