<?xml version="1.0" encoding="utf-8"?>
<!-- Generator: Adobe Illustrator 19.0.0, SVG Export Plug-In . SVG Version: 6.00 Build 0)  -->
<svg version="1.1"
	 id="Layer_1" inkscape:version="0.92.3 (2405546, 2018-03-11)" sodipodi:docname="farmacoop-iso.svg" xmlns:dc="http://purl.org/dc/elements/1.1/" xmlns:cc="http://creativecommons.org/ns#" xmlns:rdf="http://www.w3.org/1999/02/22-rdf-syntax-ns#" xmlns:svg="http://www.w3.org/2000/svg" xmlns:sodipodi="http://sodipodi.sourceforge.net/DTD/sodipodi-0.dtd" xmlns:inkscape="http://www.inkscape.org/namespaces/inkscape"
	 xmlns="http://www.w3.org/2000/svg" xmlns:xlink="http://www.w3.org/1999/xlink" x="0px" y="0px" viewBox="-453 251.9 52.7 58.1"
	 style="enable-background:new -453 251.9 52.7 58.1;" xml:space="preserve">
<style type="text/css">
	.st0{opacity:0.58;fill:#1EA5DE;enable-background:new    ;}
</style>
<g>
	
		<sodipodi:namedview  inkscape:current-layer="Layer_1" inkscape:window-maximized="1" inkscape:window-y="39" inkscape:window-x="0" inkscape:window-height="1007" inkscape:pageshadow="2" inkscape:window-width="1920" inkscape:pageopacity="0" inkscape:cy="14.819621" inkscape:cx="-62.290133" inkscape:zoom="2.6116838" showgrid="false" guidetolerance="10" gridtolerance="10" objecttolerance="10" bordercolor="#666666" pagecolor="#ffffff" borderopacity="1" id="namedview161">
		</sodipodi:namedview>
	<path class="st0" d="M-405.2,286.1c1.1,8.2-6,15.3-14.2,14.2c-5.6-0.7-10.1-5.3-10.9-10.9c-1.1-8.2,6-15.3,14.2-14.2
		C-410.4,275.8-405.9,280.5-405.2,286.1z"/>
	<path class="st0" d="M-421.9,286.1c1.1,8.2-6,15.3-14.2,14.2c-5.6-0.7-10.1-5.3-10.9-10.9c-1.1-8.2,6-15.3,14.2-14.2
		C-427.1,275.8-422.6,280.5-421.9,286.1z"/>
	<path class="st0" d="M-424.5,285.8c-8.2,1.1-15.2-5.8-14.1-14.2c0.7-5.6,5.3-10.1,10.9-10.9c8.2-1.1,15.3,5.8,14.2,14.2
		C-414.2,280.6-418.8,285.1-424.5,285.8z"/>
</g>
</svg>
