<?xml version="1.0" encoding="utf-8"?>
<!-- Generator: Adobe Illustrator 21.0.0, SVG Export Plug-In . SVG Version: 6.00 Build 0)  -->
<svg version="1.1" id="Layer_1" xmlns="http://www.w3.org/2000/svg" xmlns:xlink="http://www.w3.org/1999/xlink" x="0px" y="0px"
	 viewBox="0 0 54.6 49.5" style="enable-background:new 0 0 54.6 49.5;" xml:space="preserve">
<style type="text/css">
	.st0{fill:#FFFFFF;}
</style>
<path class="st0" d="M43.4,12.1c-3-1.3-5.4-4.5-9.5-4.5c-3.1,0-7.8,3.2-7.8,3.2v3.9c0,0,4.8-3.2,7.8-3.2c4.1,0,6.5,3.2,9.5,4.5
	c0.8,0.4,1.7,0.6,2.6,0.6c4.4-0.1,8.5-2.7,8.5-2.7V9.9c0,0-4,2.7-8.5,2.7C45.1,12.7,44.2,12.4,43.4,12.1z"/>
<path class="st0" d="M46,5.1c-0.9,0-1.8-0.2-2.6-0.6c-3-1.3-5.4-4.5-9.5-4.5c-3.1,0-7.8,3.2-7.8,3.2v3.9c0,0,4.8-3.2,7.8-3.2
	c4.1,0,6.5,3.2,9.5,4.5C44.2,8.8,45.1,9,46,9c4.4-0.1,8.5-2.7,8.5-2.7V2.3C54.5,2.3,50.5,5,46,5.1"/>
<g>
	<path class="st0" d="M0.5,24.9h4.7v0.9H3.4v6.1h1.9v0.9H0.5v-0.9h1.8v-6.1H0.5V24.9z"/>
	<path class="st0" d="M7.6,26.9l0.1,0.9c0.2-0.3,0.5-0.5,0.8-0.7s0.7-0.3,1-0.3c0.3,0,0.6,0,0.8,0.1s0.5,0.2,0.6,0.4
		c0.2,0.2,0.3,0.4,0.4,0.7s0.1,0.6,0.1,1v3.7h-1V29c0-0.3,0-0.5-0.1-0.7c-0.1-0.2-0.1-0.3-0.3-0.4c-0.1-0.1-0.3-0.2-0.4-0.2
		c-0.2-0.1-0.3-0.1-0.6-0.1c-0.3,0-0.6,0.1-0.9,0.3C8,28,7.8,28.2,7.7,28.5v4.2h-1v-5.8H7.6z"/>
	<path class="st0" d="M12.6,29.7c0-0.4,0.1-0.8,0.2-1.2s0.3-0.7,0.5-0.9c0.2-0.3,0.4-0.5,0.7-0.6c0.3-0.1,0.6-0.2,1-0.2
		c0.3,0,0.7,0.1,0.9,0.2s0.5,0.3,0.7,0.5v-3h1v8.2h-0.9l0-0.6c-0.2,0.2-0.4,0.4-0.7,0.5c-0.3,0.1-0.6,0.2-0.9,0.2
		c-0.4,0-0.7-0.1-1-0.2c-0.3-0.2-0.5-0.4-0.7-0.6c-0.2-0.3-0.4-0.6-0.5-0.9c-0.1-0.4-0.2-0.7-0.2-1.2V29.7z M13.6,29.8
		c0,0.3,0,0.6,0.1,0.8c0.1,0.3,0.2,0.5,0.3,0.7s0.3,0.3,0.5,0.5c0.2,0.1,0.4,0.2,0.7,0.2c0.2,0,0.3,0,0.5-0.1c0.1,0,0.3-0.1,0.4-0.2
		s0.2-0.2,0.3-0.3c0.1-0.1,0.2-0.2,0.2-0.3v-2.7c-0.1-0.2-0.3-0.4-0.5-0.6s-0.5-0.2-0.8-0.2c-0.3,0-0.5,0.1-0.7,0.2
		c-0.2,0.1-0.4,0.3-0.5,0.5s-0.2,0.4-0.3,0.7c-0.1,0.3-0.1,0.5-0.1,0.8V29.8z"/>
	<path class="st0" d="M22.8,31.9c-0.2,0.3-0.4,0.5-0.7,0.7c-0.3,0.2-0.6,0.2-1,0.2c-0.3,0-0.6,0-0.8-0.1s-0.5-0.2-0.6-0.4
		c-0.2-0.2-0.3-0.5-0.4-0.8S19,30.7,19,30.3v-3.5h1v3.5c0,0.3,0,0.6,0.1,0.8c0.1,0.2,0.1,0.4,0.2,0.5c0.1,0.1,0.2,0.2,0.4,0.3
		c0.1,0,0.3,0.1,0.5,0.1c0.4,0,0.7-0.1,1-0.2s0.4-0.4,0.6-0.7v-4.2h1v5.8h-0.9L22.8,31.9z"/>
	<path class="st0" d="M29,31.1c0-0.1,0-0.2-0.1-0.3s-0.1-0.2-0.2-0.3c-0.1-0.1-0.3-0.2-0.4-0.2s-0.4-0.1-0.7-0.2
		c-0.3-0.1-0.6-0.2-0.9-0.2c-0.3-0.1-0.5-0.2-0.7-0.3c-0.2-0.1-0.3-0.3-0.5-0.5s-0.2-0.4-0.2-0.6c0-0.2,0.1-0.5,0.2-0.7
		c0.1-0.2,0.3-0.4,0.5-0.5c0.2-0.2,0.4-0.3,0.7-0.4c0.3-0.1,0.6-0.1,0.9-0.1c0.4,0,0.7,0,1,0.1s0.5,0.2,0.7,0.4s0.4,0.4,0.5,0.6
		c0.1,0.2,0.2,0.5,0.2,0.7h-1c0-0.1,0-0.2-0.1-0.4s-0.2-0.2-0.3-0.3s-0.3-0.2-0.4-0.2s-0.3-0.1-0.6-0.1c-0.2,0-0.4,0-0.6,0.1
		c-0.2,0-0.3,0.1-0.4,0.2s-0.2,0.2-0.2,0.3c-0.1,0.1-0.1,0.2-0.1,0.3c0,0.1,0,0.2,0.1,0.3s0.1,0.2,0.2,0.2c0.1,0.1,0.2,0.1,0.4,0.2
		c0.2,0.1,0.4,0.1,0.7,0.2c0.4,0.1,0.7,0.2,1,0.3s0.5,0.2,0.7,0.4s0.3,0.3,0.4,0.5c0.1,0.2,0.2,0.4,0.2,0.6c0,0.3-0.1,0.5-0.2,0.7
		c-0.1,0.2-0.3,0.4-0.5,0.5c-0.2,0.2-0.5,0.3-0.7,0.3c-0.3,0.1-0.6,0.1-1,0.1c-0.4,0-0.7-0.1-1.1-0.2c-0.3-0.1-0.6-0.2-0.8-0.4
		s-0.4-0.4-0.5-0.6c-0.1-0.2-0.2-0.5-0.2-0.7h1c0,0.2,0.1,0.4,0.2,0.5c0.1,0.1,0.2,0.3,0.4,0.3s0.3,0.1,0.5,0.2s0.3,0.1,0.5,0.1
		c0.4,0,0.8-0.1,1-0.2C28.9,31.6,29,31.4,29,31.1z"/>
	<path class="st0" d="M33.7,25.5v1.4h2.2v0.8h-2.2v3.2c0,0.2,0,0.4,0.1,0.6c0.1,0.1,0.1,0.3,0.2,0.4s0.2,0.1,0.3,0.2
		c0.1,0,0.3,0.1,0.4,0.1c0.1,0,0.2,0,0.3,0s0.2,0,0.3,0c0.1,0,0.2,0,0.3-0.1s0.2,0,0.2-0.1l0.1,0.7c-0.1,0-0.2,0.1-0.3,0.1
		c-0.1,0-0.2,0.1-0.4,0.1c-0.1,0-0.3,0-0.4,0.1c-0.2,0-0.3,0-0.5,0c-0.3,0-0.5,0-0.7-0.1s-0.4-0.2-0.6-0.3c-0.2-0.2-0.3-0.4-0.4-0.6
		c-0.1-0.3-0.1-0.6-0.1-0.9v-3.2h-1.5v-0.8h1.5v-1.4H33.7z"/>
	<path class="st0" d="M41.3,26.8c0.1,0,0.2,0,0.3,0c0.1,0,0.2,0,0.3,0c0.1,0,0.2,0,0.3,0c0.1,0,0.1,0,0.2,0.1l-0.1,1
		c-0.2,0-0.4-0.1-0.6-0.1s-0.4,0-0.5,0c-0.5,0-0.8,0.1-1.1,0.3c-0.3,0.2-0.5,0.5-0.6,0.9v3.7h-1v-5.8h0.9l0,0.9
		c0.2-0.3,0.5-0.6,0.9-0.8S40.9,26.8,41.3,26.8z"/>
	<path class="st0" d="M43.8,26.9h3v5h1.9v0.9h-4.9v-0.9h2v-4.1h-2V26.9z M45.6,25.3c0-0.2,0-0.3,0.1-0.4c0.1-0.1,0.2-0.2,0.4-0.2
		c0.2,0,0.3,0.1,0.4,0.2c0.1,0.1,0.2,0.3,0.2,0.4c0,0.2-0.1,0.3-0.2,0.4c-0.1,0.1-0.2,0.2-0.4,0.2c-0.2,0-0.3-0.1-0.4-0.2
		S45.6,25.5,45.6,25.3z"/>
	<path class="st0" d="M53.6,32.7c0-0.1-0.1-0.2-0.1-0.3c0-0.1,0-0.2-0.1-0.4c-0.1,0.1-0.2,0.2-0.3,0.3c-0.1,0.1-0.3,0.2-0.4,0.2
		c-0.1,0.1-0.3,0.1-0.5,0.2c-0.2,0-0.3,0.1-0.5,0.1c-0.3,0-0.6,0-0.8-0.1c-0.2-0.1-0.5-0.2-0.6-0.4s-0.3-0.3-0.4-0.5
		c-0.1-0.2-0.1-0.4-0.1-0.7c0-0.3,0.1-0.6,0.2-0.8s0.3-0.4,0.5-0.6s0.5-0.3,0.8-0.4c0.3-0.1,0.7-0.1,1.1-0.1h1.1v-0.5
		c0-0.2,0-0.3-0.1-0.5c-0.1-0.1-0.2-0.3-0.3-0.4s-0.3-0.2-0.4-0.2s-0.4-0.1-0.6-0.1c-0.2,0-0.4,0-0.5,0.1c-0.2,0-0.3,0.1-0.4,0.2
		S51,28,50.9,28.1c-0.1,0.1-0.1,0.2-0.1,0.4h-1c0-0.2,0.1-0.4,0.2-0.6s0.3-0.4,0.5-0.6c0.2-0.2,0.4-0.3,0.7-0.4
		c0.3-0.1,0.6-0.2,1-0.2c0.3,0,0.6,0,0.9,0.1c0.3,0.1,0.5,0.2,0.7,0.4s0.4,0.4,0.5,0.6c0.1,0.2,0.2,0.5,0.2,0.9v2.7
		c0,0.2,0,0.4,0.1,0.6s0.1,0.4,0.2,0.6v0.1H53.6z M51.9,31.9c0.2,0,0.4,0,0.5-0.1c0.2-0.1,0.3-0.1,0.5-0.2s0.3-0.2,0.4-0.3
		c0.1-0.1,0.2-0.2,0.2-0.3v-1.2h-0.9c-0.6,0-1,0.1-1.4,0.3s-0.5,0.4-0.5,0.8c0,0.1,0,0.3,0.1,0.4c0,0.1,0.1,0.2,0.2,0.3
		c0.1,0.1,0.2,0.2,0.4,0.2C51.5,31.9,51.7,31.9,51.9,31.9z"/>
</g>
<g>
	<path class="st0" d="M4.2,45.2H1.6l-0.6,2H0l2.5-7.8h0.8l2.5,7.8h-1L4.2,45.2z M1.9,44.3H4l-1-3.4L1.9,44.3z"/>
	<path class="st0" d="M10.5,41.3c0.1,0,0.2,0,0.3,0c0.1,0,0.2,0,0.3,0c0.1,0,0.2,0,0.3,0c0.1,0,0.1,0,0.2,0.1l-0.1,1
		c-0.2,0-0.4-0.1-0.6-0.1s-0.4,0-0.5,0c-0.5,0-0.8,0.1-1.1,0.3c-0.3,0.2-0.5,0.5-0.6,0.9v3.7h-1v-5.8h0.9l0,0.9
		C8.7,42,9,41.8,9.3,41.6S10,41.3,10.5,41.3z"/>
	<path class="st0" d="M12.6,44.3c0-0.4,0.1-0.8,0.2-1.2s0.3-0.7,0.5-0.9c0.2-0.3,0.4-0.5,0.7-0.6c0.3-0.1,0.6-0.2,1-0.2
		c0.4,0,0.7,0.1,0.9,0.2s0.5,0.3,0.7,0.6l0-0.6h0.9v5.7c0,0.4-0.1,0.7-0.2,1c-0.1,0.3-0.3,0.5-0.5,0.8s-0.5,0.4-0.8,0.5
		s-0.6,0.2-1,0.2c-0.2,0-0.3,0-0.5-0.1s-0.4-0.1-0.6-0.2c-0.2-0.1-0.4-0.2-0.6-0.3s-0.3-0.3-0.5-0.5l0.5-0.6
		c0.1,0.1,0.2,0.3,0.4,0.4c0.1,0.1,0.3,0.2,0.4,0.2c0.1,0.1,0.3,0.1,0.4,0.1c0.1,0,0.3,0,0.4,0c0.2,0,0.4,0,0.6-0.1s0.4-0.2,0.5-0.3
		c0.1-0.1,0.2-0.3,0.3-0.5s0.1-0.4,0.1-0.7v-0.5c-0.2,0.2-0.4,0.4-0.7,0.5c-0.3,0.1-0.6,0.2-0.9,0.2c-0.4,0-0.7-0.1-1-0.2
		c-0.3-0.2-0.5-0.4-0.7-0.6c-0.2-0.3-0.4-0.6-0.5-0.9c-0.1-0.4-0.2-0.7-0.2-1.2V44.3z M13.6,44.4c0,0.3,0,0.6,0.1,0.8
		c0.1,0.3,0.2,0.5,0.3,0.7s0.3,0.3,0.5,0.5c0.2,0.1,0.4,0.2,0.7,0.2c0.2,0,0.3,0,0.5-0.1s0.3-0.1,0.4-0.2c0.1-0.1,0.2-0.2,0.3-0.3
		c0.1-0.1,0.2-0.2,0.2-0.3V43c-0.1-0.1-0.1-0.2-0.2-0.3c-0.1-0.1-0.2-0.2-0.3-0.3c-0.1-0.1-0.2-0.1-0.4-0.2s-0.3-0.1-0.5-0.1
		c-0.3,0-0.5,0.1-0.7,0.2c-0.2,0.1-0.4,0.3-0.5,0.5s-0.2,0.4-0.3,0.7c-0.1,0.3-0.1,0.5-0.1,0.8V44.4z"/>
	<path class="st0" d="M21.5,47.3c-0.4,0-0.8-0.1-1.1-0.2c-0.3-0.1-0.6-0.3-0.9-0.6c-0.2-0.3-0.4-0.5-0.6-0.9
		c-0.1-0.3-0.2-0.7-0.2-1.1v-0.2c0-0.5,0.1-0.9,0.2-1.3c0.2-0.4,0.3-0.7,0.6-0.9s0.5-0.5,0.8-0.6c0.3-0.1,0.6-0.2,1-0.2
		c0.4,0,0.8,0.1,1.1,0.2c0.3,0.1,0.6,0.3,0.8,0.6s0.4,0.6,0.5,0.9c0.1,0.3,0.2,0.7,0.2,1.1v0.4h-4.2c0,0.3,0.1,0.5,0.2,0.7
		c0.1,0.2,0.2,0.4,0.4,0.6s0.3,0.3,0.6,0.4c0.2,0.1,0.5,0.2,0.7,0.2c0.4,0,0.7-0.1,0.9-0.2c0.3-0.1,0.5-0.3,0.7-0.6l0.6,0.5
		c-0.1,0.1-0.2,0.3-0.4,0.4c-0.1,0.1-0.3,0.3-0.5,0.4s-0.4,0.2-0.6,0.3S21.8,47.3,21.5,47.3z M21.4,42.1c-0.2,0-0.4,0-0.6,0.1
		s-0.3,0.2-0.5,0.3s-0.3,0.3-0.4,0.5s-0.2,0.4-0.2,0.7h3.1v-0.1c0-0.2,0-0.4-0.1-0.6c-0.1-0.2-0.2-0.4-0.3-0.5s-0.3-0.3-0.5-0.4
		S21.7,42.1,21.4,42.1z"/>
	<path class="st0" d="M26,41.4l0.1,0.9c0.2-0.3,0.5-0.5,0.8-0.7s0.7-0.3,1-0.3c0.3,0,0.6,0,0.8,0.1s0.5,0.2,0.6,0.4
		c0.2,0.2,0.3,0.4,0.4,0.7s0.1,0.6,0.1,1v3.7h-1v-3.7c0-0.3,0-0.5-0.1-0.7c-0.1-0.2-0.1-0.3-0.3-0.4c-0.1-0.1-0.3-0.2-0.4-0.2
		c-0.2-0.1-0.3-0.1-0.6-0.1c-0.3,0-0.6,0.1-0.9,0.3c-0.3,0.2-0.5,0.4-0.6,0.7v4.2h-1v-5.8H26z"/>
	<path class="st0" d="M33.7,40v1.4h2.2v0.8h-2.2v3.2c0,0.2,0,0.4,0.1,0.6c0.1,0.1,0.1,0.3,0.2,0.4s0.2,0.1,0.3,0.2
		c0.1,0,0.3,0.1,0.4,0.1c0.1,0,0.2,0,0.3,0s0.2,0,0.3,0c0.1,0,0.2,0,0.3-0.1s0.2,0,0.2-0.1l0.1,0.7c-0.1,0-0.2,0.1-0.3,0.1
		c-0.1,0-0.2,0.1-0.4,0.1c-0.1,0-0.3,0-0.4,0.1c-0.2,0-0.3,0-0.5,0c-0.3,0-0.5,0-0.7-0.1s-0.4-0.2-0.6-0.3c-0.2-0.2-0.3-0.4-0.4-0.6
		c-0.1-0.3-0.1-0.6-0.1-0.9v-3.2h-1.5v-0.8h1.5V40H33.7z"/>
	<path class="st0" d="M37.6,41.4h3v5h1.9v0.9h-4.9v-0.9h2v-4.1h-2V41.4z M39.5,39.9c0-0.2,0-0.3,0.1-0.4c0.1-0.1,0.2-0.2,0.4-0.2
		c0.2,0,0.3,0.1,0.4,0.2c0.1,0.1,0.2,0.3,0.2,0.4c0,0.2-0.1,0.3-0.2,0.4c-0.1,0.1-0.2,0.2-0.4,0.2c-0.2,0-0.3-0.1-0.4-0.2
		S39.5,40.1,39.5,39.9z"/>
	<path class="st0" d="M44.5,41.4l0.1,0.9c0.2-0.3,0.5-0.5,0.8-0.7s0.7-0.3,1-0.3c0.3,0,0.6,0,0.8,0.1s0.5,0.2,0.6,0.4
		c0.2,0.2,0.3,0.4,0.4,0.7s0.1,0.6,0.1,1v3.7h-1v-3.7c0-0.3,0-0.5-0.1-0.7c-0.1-0.2-0.1-0.3-0.3-0.4c-0.1-0.1-0.3-0.2-0.4-0.2
		c-0.2-0.1-0.3-0.1-0.6-0.1c-0.3,0-0.6,0.1-0.9,0.3c-0.3,0.2-0.5,0.4-0.6,0.7v4.2h-1v-5.8H44.5z"/>
	<path class="st0" d="M53.6,47.2c0-0.1-0.1-0.2-0.1-0.3c0-0.1,0-0.2-0.1-0.4c-0.1,0.1-0.2,0.2-0.3,0.3c-0.1,0.1-0.3,0.2-0.4,0.2
		c-0.1,0.1-0.3,0.1-0.5,0.2c-0.2,0-0.3,0.1-0.5,0.1c-0.3,0-0.6,0-0.8-0.1c-0.2-0.1-0.5-0.2-0.6-0.4s-0.3-0.3-0.4-0.5
		c-0.1-0.2-0.1-0.4-0.1-0.7c0-0.3,0.1-0.6,0.2-0.8s0.3-0.4,0.5-0.6s0.5-0.3,0.8-0.4c0.3-0.1,0.7-0.1,1.1-0.1h1.1v-0.5
		c0-0.2,0-0.3-0.1-0.5c-0.1-0.1-0.2-0.3-0.3-0.4s-0.3-0.2-0.4-0.2s-0.4-0.1-0.6-0.1c-0.2,0-0.4,0-0.5,0.1c-0.2,0-0.3,0.1-0.4,0.2
		s-0.2,0.2-0.2,0.3c-0.1,0.1-0.1,0.2-0.1,0.4h-1c0-0.2,0.1-0.4,0.2-0.6s0.3-0.4,0.5-0.6c0.2-0.2,0.4-0.3,0.7-0.4
		c0.3-0.1,0.6-0.2,1-0.2c0.3,0,0.6,0,0.9,0.1c0.3,0.1,0.5,0.2,0.7,0.4s0.4,0.4,0.5,0.6c0.1,0.2,0.2,0.5,0.2,0.9V46
		c0,0.2,0,0.4,0.1,0.6s0.1,0.4,0.2,0.6v0.1H53.6z M51.9,46.5c0.2,0,0.4,0,0.5-0.1c0.2-0.1,0.3-0.1,0.5-0.2s0.3-0.2,0.4-0.3
		c0.1-0.1,0.2-0.2,0.2-0.3v-1.2h-0.9c-0.6,0-1,0.1-1.4,0.3s-0.5,0.4-0.5,0.8c0,0.1,0,0.3,0.1,0.4c0,0.1,0.1,0.2,0.2,0.3
		c0.1,0.1,0.2,0.2,0.4,0.2C51.5,46.5,51.7,46.5,51.9,46.5z"/>
</g>
</svg>
