<?xml version="1.0" encoding="UTF-8" standalone="no"?>
<!-- Generator: Adobe Illustrator 21.0.0, SVG Export Plug-In . SVG Version: 6.00 Build 0)  -->

<svg
   xmlns:dc="http://purl.org/dc/elements/1.1/"
   xmlns:cc="http://creativecommons.org/ns#"
   xmlns:rdf="http://www.w3.org/1999/02/22-rdf-syntax-ns#"
   xmlns:svg="http://www.w3.org/2000/svg"
   xmlns="http://www.w3.org/2000/svg"
   xmlns:sodipodi="http://sodipodi.sourceforge.net/DTD/sodipodi-0.dtd"
   xmlns:inkscape="http://www.inkscape.org/namespaces/inkscape"
   version="1.1"
   id="Layer_1"
   x="0px"
   y="0px"
   viewBox="0 0 65.978364 18.020451"
   xml:space="preserve"
   sodipodi:docname="ind-argentina.svg"
   width="65.978363"
   height="18.020451"
   inkscape:version="0.92.3 (2405546, 2018-03-11)"><metadata
   id="metadata53"><rdf:RDF><cc:Work
       rdf:about=""><dc:format>image/svg+xml</dc:format><dc:type
         rdf:resource="http://purl.org/dc/dcmitype/StillImage" /></cc:Work></rdf:RDF></metadata><defs
   id="defs51" /><sodipodi:namedview
   pagecolor="#ffffff"
   bordercolor="#666666"
   borderopacity="1"
   objecttolerance="10"
   gridtolerance="10"
   guidetolerance="10"
   inkscape:pageopacity="0"
   inkscape:pageshadow="2"
   inkscape:window-width="1920"
   inkscape:window-height="1007"
   id="namedview49"
   showgrid="false"
   inkscape:zoom="4.7676768"
   inkscape:cx="-11.892357"
   inkscape:cy="57.867794"
   inkscape:window-x="0"
   inkscape:window-y="39"
   inkscape:window-maximized="1"
   inkscape:current-layer="text866" />
<style
   type="text/css"
   id="style2">
	.st0{fill:#FFFFFF;}
</style>




<g
   aria-label="Industria  100% Argentina"
   style="font-style:normal;font-variant:normal;font-weight:normal;font-stretch:normal;font-size:18.66666603px;line-height:1.25;font-family:'Noto Sans Mono';-inkscape-font-specification:'Noto Sans Mono, Normal';font-variant-ligatures:normal;font-variant-caps:normal;font-variant-numeric:normal;font-feature-settings:normal;text-align:end;letter-spacing:0px;word-spacing:0px;writing-mode:lr-tb;text-anchor:end;fill:#000000;fill-opacity:1;stroke:none"
   id="text866"
   transform="translate(-100.98068,-115.77531)"><g
     transform="matrix(0.53214278,0,0,0.53214278,87.091757,123.08975)"
     id="g880"
     style="font-style:normal;font-variant:normal;font-weight:normal;font-stretch:normal;font-size:18.66666603px;line-height:1.25;font-family:'Noto Sans Mono';-inkscape-font-specification:'Noto Sans Mono, Normal';font-variant-ligatures:normal;font-variant-caps:normal;font-variant-numeric:normal;font-feature-settings:normal;text-align:end;letter-spacing:0px;word-spacing:0px;writing-mode:lr-tb;text-anchor:end;fill:#ffffff;fill-opacity:1;stroke:none"><path
       inkscape:connector-curvature="0"
       class="st0"
       d="m 43.4,12.1 c -3,-1.3 -5.4,-4.5 -9.5,-4.5 -3.1,0 -7.8,3.2 -7.8,3.2 v 3.9 c 0,0 4.8,-3.2 7.8,-3.2 4.1,0 6.5,3.2 9.5,4.5 0.8,0.4 1.7,0.6 2.6,0.6 4.4,-0.1 8.5,-2.7 8.5,-2.7 v -4 c 0,0 -4,2.7 -8.5,2.7 -0.9,0.1 -1.8,-0.2 -2.6,-0.5 z"
       id="path4"
       style="fill:#ffffff;fill-opacity:1" /><path
       inkscape:connector-curvature="0"
       class="st0"
       d="M 46,5.1 C 45.1,5.1 44.2,4.9 43.4,4.5 40.4,3.2 38,0 33.9,0 30.8,0 26.1,3.2 26.1,3.2 v 3.9 c 0,0 4.8,-3.2 7.8,-3.2 4.1,0 6.5,3.2 9.5,4.5 C 44.2,8.8 45.1,9 46,9 50.4,8.9 54.5,6.3 54.5,6.3 v -4 c 0,0 -4,2.7 -8.5,2.8"
       id="path6"
       style="fill:#ffffff;fill-opacity:1" /></g><path
     id="path927"
     d="m 121.06834,122.48645 v -0.54749 l 1.27158,-0.1148 v -4.98037 l -1.27158,-0.11479 v -0.54749 h 3.35557 v 0.54749 l -1.28925,0.11479 v 4.98037 l 1.28925,0.1148 v 0.54749 z"
     inkscape:connector-curvature="0"
     style="font-style:normal;font-variant:normal;font-weight:normal;font-stretch:normal;font-size:18.66666603px;line-height:1.25;font-family:'Noto Sans Mono';-inkscape-font-specification:'Noto Sans Mono, Normal';font-variant-ligatures:normal;font-variant-caps:normal;font-variant-numeric:normal;font-feature-settings:normal;text-align:end;letter-spacing:0px;word-spacing:0px;writing-mode:lr-tb;text-anchor:end;fill:#ffffff;fill-opacity:1;stroke:none;stroke-width:0.47305948" /><path
     id="path929"
     d="m 126.09824,122.48645 v -4.73312 h 0.63579 l 0.1148,0.6976 h 0.0441 q 0.2031,-0.4062 0.60047,-0.59164 0.4062,-0.19427 0.94486,-0.19427 0.71527,0 1.14796,0.4062 0.44152,0.39737 0.44152,1.25393 v 3.1613 H 129.233 v -3.02002 q 0,-0.60047 -0.24725,-0.87421 -0.23843,-0.28257 -0.77708,-0.28257 -0.7241,0 -1.02434,0.45918 -0.2914,0.45918 -0.2914,1.28924 v 2.42838 z"
     inkscape:connector-curvature="0"
     style="font-style:normal;font-variant:normal;font-weight:normal;font-stretch:normal;font-size:18.66666603px;line-height:1.25;font-family:'Noto Sans Mono';-inkscape-font-specification:'Noto Sans Mono, Normal';font-variant-ligatures:normal;font-variant-caps:normal;font-variant-numeric:normal;font-feature-settings:normal;text-align:end;letter-spacing:0px;word-spacing:0px;writing-mode:lr-tb;text-anchor:end;fill:#ffffff;fill-opacity:1;stroke:none;stroke-width:0.47305948" /><path
     id="path931"
     d="m 133.10616,122.57475 q -0.87421,0 -1.40404,-0.6093 -0.52982,-0.6093 -0.52982,-1.87205 0,-1.17445 0.50333,-1.80141 0.50334,-0.62697 1.51884,-0.62697 0.4945,0 0.8124,0.19427 0.31789,0.19427 0.48567,0.49451 h 0.053 q -0.0176,-0.12363 -0.0353,-0.32673 -0.0177,-0.2031 -0.0177,-0.37088 v -1.88088 h 0.78591 v 6.71114 H 134.625 l -0.0883,-0.6358 h -0.0353 q -0.19426,0.3179 -0.52982,0.521 -0.32673,0.2031 -0.86539,0.2031 z m 0.15012,-0.64462 q 0.62696,0 0.9272,-0.43269 0.30906,-0.44153 0.30906,-1.19211 v -0.17661 q 0,-0.521 -0.11479,-0.9272 -0.1148,-0.41503 -0.37971,-0.65345 -0.26491,-0.23842 -0.71526,-0.23842 -0.61814,0 -0.96252,0.45918 -0.33556,0.45918 -0.33556,1.40404 0,1.75726 1.27158,1.75726 z"
     inkscape:connector-curvature="0"
     style="font-style:normal;font-variant:normal;font-weight:normal;font-stretch:normal;font-size:18.66666603px;line-height:1.25;font-family:'Noto Sans Mono';-inkscape-font-specification:'Noto Sans Mono, Normal';font-variant-ligatures:normal;font-variant-caps:normal;font-variant-numeric:normal;font-feature-settings:normal;text-align:end;letter-spacing:0px;word-spacing:0px;writing-mode:lr-tb;text-anchor:end;fill:#ffffff;fill-opacity:1;stroke:none;stroke-width:0.47305948" /><path
     id="path933"
     d="m 138.28619,122.57475 q -0.8389,0 -1.24509,-0.41503 -0.39737,-0.41503 -0.39737,-1.25392 v -3.15247 h 0.79474 v 3.02884 q 0,0.56515 0.22959,0.85655 0.23842,0.29141 0.8124,0.29141 0.73293,0 1.0155,-0.45919 0.28257,-0.45918 0.28257,-1.28041 v -2.4372 h 0.79474 v 4.73312 h -0.63579 l -0.11479,-0.6358 h -0.0441 q -0.24725,0.39737 -0.62696,0.56515 -0.37088,0.15895 -0.86539,0.15895 z"
     inkscape:connector-curvature="0"
     style="font-style:normal;font-variant:normal;font-weight:normal;font-stretch:normal;font-size:18.66666603px;line-height:1.25;font-family:'Noto Sans Mono';-inkscape-font-specification:'Noto Sans Mono, Normal';font-variant-ligatures:normal;font-variant-caps:normal;font-variant-numeric:normal;font-feature-settings:normal;text-align:end;letter-spacing:0px;word-spacing:0px;writing-mode:lr-tb;text-anchor:end;fill:#ffffff;fill-opacity:1;stroke:none;stroke-width:0.47305948" /><path
     id="path935"
     d="m 143.73995,122.57475 q -0.44152,0 -0.84772,-0.0795 -0.39737,-0.0795 -0.68878,-0.22076 v -0.73293 q 0.30907,0.14129 0.67995,0.26492 0.37971,0.11479 0.9007,0.11479 0.58281,0 0.82124,-0.17661 0.24725,-0.18544 0.24725,-0.52982 0,-0.18544 -0.0883,-0.30024 -0.0795,-0.12363 -0.3179,-0.24725 -0.23842,-0.12363 -0.69761,-0.3179 -0.45918,-0.19427 -0.78591,-0.37088 -0.32672,-0.18544 -0.50333,-0.42386 -0.17661,-0.24725 -0.17661,-0.62696 0,-0.62696 0.47684,-0.94486 0.48568,-0.31789 1.34223,-0.31789 0.38854,0 0.74176,0.0706 0.35321,0.0706 0.73292,0.22959 l -0.23842,0.61813 q -0.35322,-0.15012 -0.65345,-0.2031 -0.2914,-0.053 -0.58281,-0.053 -0.54749,0 -0.80357,0.14129 -0.24726,0.14128 -0.24726,0.44152 0,0.19427 0.10597,0.32673 0.1148,0.13245 0.36205,0.25608 0.25608,0.12362 0.67111,0.30023 0.46802,0.2031 0.79474,0.37088 0.32673,0.15895 0.49451,0.39737 0.16778,0.22959 0.16778,0.63579 0,0.67112 -0.48568,1.02434 -0.47684,0.35321 -1.4217,0.35321 z"
     inkscape:connector-curvature="0"
     style="font-style:normal;font-variant:normal;font-weight:normal;font-stretch:normal;font-size:18.66666603px;line-height:1.25;font-family:'Noto Sans Mono';-inkscape-font-specification:'Noto Sans Mono, Normal';font-variant-ligatures:normal;font-variant-caps:normal;font-variant-numeric:normal;font-feature-settings:normal;text-align:end;letter-spacing:0px;word-spacing:0px;writing-mode:lr-tb;text-anchor:end;fill:#ffffff;fill-opacity:1;stroke:none;stroke-width:0.47305948" /><path
     id="path937"
     d="m 150.12091,122.57475 q -0.50333,0 -0.90954,-0.13246 -0.39737,-0.13245 -0.62696,-0.46801 -0.22959,-0.33556 -0.22959,-0.9272 v -2.63147 h -1.28924 v -0.54749 l 1.28924,-0.14128 0.15895,-1.23627 h 0.63579 v 1.26276 h 1.84557 v 0.66228 h -1.84557 v 2.48136 q 0,0.53865 0.23843,0.7859 0.23842,0.24726 0.7859,0.24726 0.22959,0 0.49451,-0.0442 0.26491,-0.0442 0.45918,-0.0883 v 0.63579 q -0.21193,0.053 -0.46801,0.0971 -0.25609,0.0441 -0.53866,0.0441 z"
     inkscape:connector-curvature="0"
     style="font-style:normal;font-variant:normal;font-weight:normal;font-stretch:normal;font-size:18.66666603px;line-height:1.25;font-family:'Noto Sans Mono';-inkscape-font-specification:'Noto Sans Mono, Normal';font-variant-ligatures:normal;font-variant-caps:normal;font-variant-numeric:normal;font-feature-settings:normal;text-align:end;letter-spacing:0px;word-spacing:0px;writing-mode:lr-tb;text-anchor:end;fill:#ffffff;fill-opacity:1;stroke:none;stroke-width:0.47305948" /><path
     id="path939"
     d="m 152.41338,122.48645 v -0.52983 l 1.43936,-0.13246 v -3.40855 l -1.29807,-0.11479 v -0.54749 h 1.93386 l 0.10597,0.86538 h 0.0353 q 0.24725,-0.45918 0.53865,-0.70643 0.30024,-0.24726 0.78592,-0.24726 0.30023,0 0.52982,0.053 0.23842,0.053 0.43269,0.14129 l -0.21193,0.69761 q -0.14128,-0.0795 -0.33556,-0.13246 -0.19427,-0.0618 -0.41502,-0.0618 -0.37972,0 -0.67112,0.23842 -0.2914,0.23842 -0.45918,0.63579 -0.16778,0.39737 -0.16778,0.87422 v 1.7131 l 1.37755,0.13246 v 0.52983 z"
     inkscape:connector-curvature="0"
     style="font-style:normal;font-variant:normal;font-weight:normal;font-stretch:normal;font-size:18.66666603px;line-height:1.25;font-family:'Noto Sans Mono';-inkscape-font-specification:'Noto Sans Mono, Normal';font-variant-ligatures:normal;font-variant-caps:normal;font-variant-numeric:normal;font-feature-settings:normal;text-align:end;letter-spacing:0px;word-spacing:0px;writing-mode:lr-tb;text-anchor:end;fill:#ffffff;fill-opacity:1;stroke:none;stroke-width:0.47305948" /><path
     id="path941"
     d="m 159.87165,116.89677 q -0.22959,0 -0.39737,-0.13245 -0.15895,-0.14129 -0.15895,-0.42386 0,-0.29141 0.15895,-0.42386 0.16778,-0.14129 0.39737,-0.14129 0.22076,0 0.38854,0.14129 0.16778,0.13245 0.16778,0.42386 0,0.28257 -0.16778,0.42386 -0.16778,0.13245 -0.38854,0.13245 z m -2.00451,5.58968 v -0.52983 l 1.68661,-0.13246 v -3.40855 l -1.54532,-0.11479 v -0.54749 h 2.34006 v 4.07083 l 1.58065,0.13246 v 0.52983 z"
     inkscape:connector-curvature="0"
     style="font-style:normal;font-variant:normal;font-weight:normal;font-stretch:normal;font-size:18.66666603px;line-height:1.25;font-family:'Noto Sans Mono';-inkscape-font-specification:'Noto Sans Mono, Normal';font-variant-ligatures:normal;font-variant-caps:normal;font-variant-numeric:normal;font-feature-settings:normal;text-align:end;letter-spacing:0px;word-spacing:0px;writing-mode:lr-tb;text-anchor:end;fill:#ffffff;fill-opacity:1;stroke:none;stroke-width:0.47305948" /><path
     id="path943"
     d="m 164.62781,122.57475 q -0.6976,0 -1.1303,-0.34439 -0.42386,-0.34438 -0.42386,-1.04199 0,-0.76825 0.54749,-1.14796 0.55632,-0.37971 1.59831,-0.4062 l 1.0155,-0.0265 v -0.19427 q 0,-0.63579 -0.31789,-0.86538 -0.3179,-0.23842 -0.85656,-0.23842 -0.3797,0 -0.72409,0.0971 -0.34439,0.0971 -0.65346,0.27374 l -0.27374,-0.60047 q 0.33556,-0.16778 0.74176,-0.2914 0.41503,-0.12363 0.95369,-0.12363 0.88304,0 1.36872,0.4062 0.48567,0.39737 0.48567,1.24509 v 3.17013 h -0.63579 l -0.0883,-0.65345 h -0.0353 q -0.2914,0.37088 -0.67994,0.55632 -0.37971,0.18544 -0.89187,0.18544 z m 0.13246,-0.64462 q 0.39737,0 0.73293,-0.14129 0.33555,-0.15012 0.53865,-0.44152 0.2031,-0.29141 0.2031,-0.75059 v -0.42386 l -0.84772,0.0265 q -0.84772,0.0265 -1.20977,0.27374 -0.35322,0.24725 -0.35322,0.68878 0,0.4062 0.25608,0.59164 0.25609,0.17661 0.67995,0.17661 z"
     inkscape:connector-curvature="0"
     style="font-style:normal;font-variant:normal;font-weight:normal;font-stretch:normal;font-size:18.66666603px;line-height:1.25;font-family:'Noto Sans Mono';-inkscape-font-specification:'Noto Sans Mono, Normal';font-variant-ligatures:normal;font-variant-caps:normal;font-variant-numeric:normal;font-feature-settings:normal;text-align:end;letter-spacing:0px;word-spacing:0px;writing-mode:lr-tb;text-anchor:end;fill:#ffffff;fill-opacity:1;stroke:none;stroke-width:0.47305948" /><path
     inkscape:connector-curvature="0"
     id="path953"
     d="m 120.2736,131.63226 2.04866,-6.33143 h 0.83889 l 2.0575,6.33143 h -0.81241 l -0.60046,-1.93387 h -2.12814 l -0.60047,1.93387 z m 2.20761,-4.52118 -0.58281,1.88088 h 1.68661 l -0.58281,-1.88088 q -0.0441,-0.15012 -0.12362,-0.42387 -0.0795,-0.27374 -0.14129,-0.54748 -0.053,0.27374 -0.13246,0.55631 -0.0795,0.27375 -0.12362,0.41504 z"
     style="font-style:normal;font-variant:normal;font-weight:normal;font-stretch:normal;font-size:18.66666603px;line-height:1.25;font-family:'Noto Sans Mono';-inkscape-font-specification:'Noto Sans Mono, Normal';font-variant-ligatures:normal;font-variant-caps:normal;font-variant-numeric:normal;font-feature-settings:normal;text-align:end;letter-spacing:0px;word-spacing:0px;writing-mode:lr-tb;text-anchor:end;fill:#ffffff;fill-opacity:1;stroke:none;stroke-width:0.47305948" /><path
     inkscape:connector-curvature="0"
     id="path955"
     d="m 125.9393,131.63226 v -0.52982 l 1.43936,-0.13246 v -3.40855 l -1.29808,-0.1148 v -0.54749 h 1.93387 l 0.10596,0.86539 h 0.0353 q 0.24725,-0.45919 0.53866,-0.70644 0.30023,-0.24725 0.78591,-0.24725 0.30023,0 0.52983,0.053 0.23842,0.053 0.43269,0.14129 l -0.21193,0.6976 q -0.14129,-0.0795 -0.33556,-0.13246 -0.19427,-0.0618 -0.41503,-0.0618 -0.37971,0 -0.67111,0.23843 -0.29141,0.23842 -0.45919,0.63579 -0.16777,0.39737 -0.16777,0.87421 v 1.71311 l 1.37754,0.13246 v 0.52982 z"
     style="font-style:normal;font-variant:normal;font-weight:normal;font-stretch:normal;font-size:18.66666603px;line-height:1.25;font-family:'Noto Sans Mono';-inkscape-font-specification:'Noto Sans Mono, Normal';font-variant-ligatures:normal;font-variant-caps:normal;font-variant-numeric:normal;font-feature-settings:normal;text-align:end;letter-spacing:0px;word-spacing:0px;writing-mode:lr-tb;text-anchor:end;fill:#ffffff;fill-opacity:1;stroke:none;stroke-width:0.47305948" /><path
     inkscape:connector-curvature="0"
     id="path957"
     d="m 133.12382,133.79572 q -0.4945,0 -0.91836,-0.0971 -0.42386,-0.0883 -0.78591,-0.23842 v -0.70643 q 0.35321,0.2031 0.8124,0.30023 0.46801,0.10597 0.86538,0.10597 0.80357,0 1.12147,-0.37971 0.3179,-0.37088 0.3179,-1.02433 v -0.16778 q 0,-0.10597 0,-0.2031 0.009,-0.0971 0.0265,-0.30024 h -0.0353 q -0.24725,0.36205 -0.58281,0.50334 -0.32673,0.13246 -0.79474,0.13246 -0.94486,0 -1.46585,-0.6358 -0.51217,-0.64462 -0.51217,-1.79258 0,-1.15678 0.51217,-1.81907 0.52099,-0.66228 1.4217,-0.66228 0.47684,0 0.80357,0.15895 0.32672,0.15012 0.58281,0.51216 h 0.0441 l 0.10596,-0.58281 h 0.63579 v 4.85675 q 0,1.0155 -0.52099,1.52766 -0.521,0.51217 -1.63364,0.51217 z m 0.17661,-2.71978 q 0.59164,0 0.9272,-0.37971 0.33556,-0.38853 0.33556,-1.23626 v -0.18544 q 0,-0.96251 -0.35322,-1.38638 -0.34439,-0.43269 -0.93603,-0.43269 -0.67111,0 -0.98018,0.47685 -0.30906,0.46801 -0.30906,1.33339 0,0.88305 0.31789,1.35106 0.32673,0.45918 0.99784,0.45918 z"
     style="font-style:normal;font-variant:normal;font-weight:normal;font-stretch:normal;font-size:18.66666603px;line-height:1.25;font-family:'Noto Sans Mono';-inkscape-font-specification:'Noto Sans Mono, Normal';font-variant-ligatures:normal;font-variant-caps:normal;font-variant-numeric:normal;font-feature-settings:normal;text-align:end;letter-spacing:0px;word-spacing:0px;writing-mode:lr-tb;text-anchor:end;fill:#ffffff;fill-opacity:1;stroke:none;stroke-width:0.47305948" /><path
     inkscape:connector-curvature="0"
     id="path959"
     d="m 138.9573,131.72057 q -1.13913,0 -1.79258,-0.62697 -0.65345,-0.62696 -0.65345,-1.81024 0,-0.77707 0.28257,-1.32456 0.28257,-0.55632 0.78591,-0.84772 0.50334,-0.30024 1.17445,-0.30024 0.9272,0 1.45702,0.60047 0.53866,0.60047 0.53866,1.64246 v 0.36205 h -3.43504 q 0.0176,0.61813 0.22959,0.98018 0.22076,0.36205 0.59164,0.521 0.37971,0.15011 0.87421,0.15011 0.37971,0 0.75942,-0.10596 0.37971,-0.10597 0.76825,-0.28258 v 0.70644 q -0.4062,0.17661 -0.8124,0.25608 -0.4062,0.0795 -0.76825,0.0795 z m -1.6248,-2.94054 h 2.62264 q -0.0265,-0.61813 -0.33556,-0.97135 -0.30023,-0.35322 -0.86538,-0.35322 -0.60047,0 -0.96252,0.36205 -0.36205,0.35322 -0.45918,0.96252 z"
     style="font-style:normal;font-variant:normal;font-weight:normal;font-stretch:normal;font-size:18.66666603px;line-height:1.25;font-family:'Noto Sans Mono';-inkscape-font-specification:'Noto Sans Mono, Normal';font-variant-ligatures:normal;font-variant-caps:normal;font-variant-numeric:normal;font-feature-settings:normal;text-align:end;letter-spacing:0px;word-spacing:0px;writing-mode:lr-tb;text-anchor:end;fill:#ffffff;fill-opacity:1;stroke:none;stroke-width:0.47305948" /><path
     inkscape:connector-curvature="0"
     id="path961"
     d="m 141.98269,131.63226 v -4.73312 h 0.6358 l 0.11479,0.69761 h 0.0441 q 0.2031,-0.4062 0.60047,-0.59164 0.4062,-0.19427 0.94486,-0.19427 0.71527,0 1.14796,0.4062 0.44152,0.39737 0.44152,1.25392 v 3.1613 h -0.79474 v -3.02001 q 0,-0.60047 -0.24725,-0.87421 -0.23842,-0.28258 -0.77708,-0.28258 -0.7241,0 -1.02433,0.45919 -0.29141,0.45918 -0.29141,1.28924 v 2.42837 z"
     style="font-style:normal;font-variant:normal;font-weight:normal;font-stretch:normal;font-size:18.66666603px;line-height:1.25;font-family:'Noto Sans Mono';-inkscape-font-specification:'Noto Sans Mono, Normal';font-variant-ligatures:normal;font-variant-caps:normal;font-variant-numeric:normal;font-feature-settings:normal;text-align:end;letter-spacing:0px;word-spacing:0px;writing-mode:lr-tb;text-anchor:end;fill:#ffffff;fill-opacity:1;stroke:none;stroke-width:0.47305948" /><path
     inkscape:connector-curvature="0"
     id="path963"
     d="m 150.12091,131.72057 q -0.50333,0 -0.90954,-0.13246 -0.39737,-0.13246 -0.62696,-0.46801 -0.22959,-0.33556 -0.22959,-0.9272 v -2.63147 h -1.28924 v -0.54749 l 1.28924,-0.14129 0.15895,-1.23626 h 0.63579 v 1.26275 h 1.84557 v 0.66229 h -1.84557 v 2.48135 q 0,0.53866 0.23843,0.78591 0.23842,0.24725 0.7859,0.24725 0.22959,0 0.49451,-0.0442 0.26491,-0.0442 0.45918,-0.0883 v 0.6358 q -0.21193,0.053 -0.46801,0.0971 -0.25609,0.0442 -0.53866,0.0442 z"
     style="font-style:normal;font-variant:normal;font-weight:normal;font-stretch:normal;font-size:18.66666603px;line-height:1.25;font-family:'Noto Sans Mono';-inkscape-font-specification:'Noto Sans Mono, Normal';font-variant-ligatures:normal;font-variant-caps:normal;font-variant-numeric:normal;font-feature-settings:normal;text-align:end;letter-spacing:0px;word-spacing:0px;writing-mode:lr-tb;text-anchor:end;fill:#ffffff;fill-opacity:1;stroke:none;stroke-width:0.47305948" /><path
     inkscape:connector-curvature="0"
     id="path965"
     d="m 154.57684,126.04259 q -0.2296,0 -0.39737,-0.13246 -0.15895,-0.14128 -0.15895,-0.42386 0,-0.2914 0.15895,-0.42386 0.16777,-0.14129 0.39737,-0.14129 0.22076,0 0.38854,0.14129 0.16778,0.13246 0.16778,0.42386 0,0.28258 -0.16778,0.42386 -0.16778,0.13246 -0.38854,0.13246 z m -2.00452,5.58967 v -0.52982 l 1.68662,-0.13246 v -3.40855 l -1.54533,-0.1148 v -0.54749 h 2.34007 v 4.07084 l 1.58065,0.13246 v 0.52982 z"
     style="font-style:normal;font-variant:normal;font-weight:normal;font-stretch:normal;font-size:18.66666603px;line-height:1.25;font-family:'Noto Sans Mono';-inkscape-font-specification:'Noto Sans Mono, Normal';font-variant-ligatures:normal;font-variant-caps:normal;font-variant-numeric:normal;font-feature-settings:normal;text-align:end;letter-spacing:0px;word-spacing:0px;writing-mode:lr-tb;text-anchor:end;fill:#ffffff;fill-opacity:1;stroke:none;stroke-width:0.47305948" /><path
     inkscape:connector-curvature="0"
     id="path967"
     d="m 157.86715,131.63226 v -4.73312 h 0.63578 l 0.1148,0.69761 h 0.0441 q 0.2031,-0.4062 0.60047,-0.59164 0.4062,-0.19427 0.94486,-0.19427 0.71527,0 1.14796,0.4062 0.44152,0.39737 0.44152,1.25392 v 3.1613 h -0.79474 v -3.02001 q 0,-0.60047 -0.24725,-0.87421 -0.23843,-0.28258 -0.77708,-0.28258 -0.7241,0 -1.02433,0.45919 -0.29141,0.45918 -0.29141,1.28924 v 2.42837 z"
     style="font-style:normal;font-variant:normal;font-weight:normal;font-stretch:normal;font-size:18.66666603px;line-height:1.25;font-family:'Noto Sans Mono';-inkscape-font-specification:'Noto Sans Mono, Normal';font-variant-ligatures:normal;font-variant-caps:normal;font-variant-numeric:normal;font-feature-settings:normal;text-align:end;letter-spacing:0px;word-spacing:0px;writing-mode:lr-tb;text-anchor:end;fill:#ffffff;fill-opacity:1;stroke:none;stroke-width:0.47305948" /><path
     inkscape:connector-curvature="0"
     id="path969"
     d="m 164.62781,131.72057 q -0.6976,0 -1.1303,-0.34439 -0.42386,-0.34439 -0.42386,-1.04199 0,-0.76825 0.54749,-1.14796 0.55632,-0.37971 1.59831,-0.4062 l 1.0155,-0.0265 v -0.19427 q 0,-0.63579 -0.31789,-0.86539 -0.3179,-0.23842 -0.85656,-0.23842 -0.37971,0 -0.7241,0.0971 -0.34438,0.0971 -0.65345,0.27375 l -0.27374,-0.60047 q 0.33556,-0.16778 0.74175,-0.29141 0.41504,-0.12363 0.95369,-0.12363 0.88305,0 1.36872,0.4062 0.48568,0.39737 0.48568,1.2451 v 3.17013 h -0.63579 l -0.0883,-0.65346 h -0.0353 q -0.2914,0.37088 -0.67994,0.55632 -0.37971,0.18544 -0.89188,0.18544 z m 0.13246,-0.64463 q 0.39737,0 0.73293,-0.14128 0.33555,-0.15012 0.53865,-0.44153 0.2031,-0.2914 0.2031,-0.75058 v -0.42386 l -0.84772,0.0265 q -0.84772,0.0265 -1.20977,0.27374 -0.35322,0.24725 -0.35322,0.68877 0,0.4062 0.25608,0.59164 0.25608,0.17661 0.67995,0.17661 z"
     style="font-style:normal;font-variant:normal;font-weight:normal;font-stretch:normal;font-size:18.66666603px;line-height:1.25;font-family:'Noto Sans Mono';-inkscape-font-specification:'Noto Sans Mono, Normal';font-variant-ligatures:normal;font-variant-caps:normal;font-variant-numeric:normal;font-feature-settings:normal;text-align:end;letter-spacing:0px;word-spacing:0px;writing-mode:lr-tb;text-anchor:end;fill:#ffffff;fill-opacity:1;stroke:none;stroke-width:0.47305948" /></g></svg>