<?xml version="1.0" encoding="UTF-8" standalone="no"?>
<!-- Generator: Adobe Illustrator 21.0.0, SVG Export Plug-In . SVG Version: 6.00 Build 0)  -->

<svg
   xmlns:dc="http://purl.org/dc/elements/1.1/"
   xmlns:cc="http://creativecommons.org/ns#"
   xmlns:rdf="http://www.w3.org/1999/02/22-rdf-syntax-ns#"
   xmlns:svg="http://www.w3.org/2000/svg"
   xmlns="http://www.w3.org/2000/svg"
   xmlns:sodipodi="http://sodipodi.sourceforge.net/DTD/sodipodi-0.dtd"
   xmlns:inkscape="http://www.inkscape.org/namespaces/inkscape"
   version="1.1"
   id="Layer_1"
   x="0px"
   y="0px"
   viewBox="0 0 65.978372 18.020413"
   xml:space="preserve"
   sodipodi:docname="ind-argentina-g.svg"
   width="65.978371"
   height="18.020412"
   inkscape:version="0.92.3 (2405546, 2018-03-11)"><metadata
   id="metadata53"><rdf:RDF><cc:Work
       rdf:about=""><dc:format>image/svg+xml</dc:format><dc:type
         rdf:resource="http://purl.org/dc/dcmitype/StillImage" /><dc:title /></cc:Work></rdf:RDF></metadata><defs
   id="defs51" /><sodipodi:namedview
   pagecolor="#ffffff"
   bordercolor="#666666"
   borderopacity="1"
   objecttolerance="10"
   gridtolerance="10"
   guidetolerance="10"
   inkscape:pageopacity="0"
   inkscape:pageshadow="2"
   inkscape:window-width="1920"
   inkscape:window-height="1007"
   id="namedview49"
   showgrid="false"
   inkscape:zoom="4.7676768"
   inkscape:cx="-17.672791"
   inkscape:cy="-5.8772332"
   inkscape:window-x="0"
   inkscape:window-y="39"
   inkscape:window-maximized="1"
   inkscape:current-layer="g1000" />
<style
   type="text/css"
   id="style2">
	.st0{fill:#FFFFFF;}
</style>




<g
   aria-label="Industria  100% Argentina"
   style="font-style:normal;font-variant:normal;font-weight:normal;font-stretch:normal;font-size:18.66666603px;line-height:1.25;font-family:'Noto Sans Mono';-inkscape-font-specification:'Noto Sans Mono, Normal';font-variant-ligatures:normal;font-variant-caps:normal;font-variant-numeric:normal;font-feature-settings:normal;text-align:end;letter-spacing:0px;word-spacing:0px;writing-mode:lr-tb;text-anchor:end;fill:#000000;fill-opacity:1;stroke:none"
   id="text866"
   transform="translate(-106.76112,-52.03032)"><g
     id="g1000"
     transform="matrix(0.47305949,0,0,0.47305949,71.927217,32.05068)"
     style="fill:#6d6f71;fill-opacity:1"><g
       transform="matrix(1.1248961,0,0,1.1248961,44.275563,57.696923)"
       id="g880"
       style="fill:#6d6f71;fill-opacity:1"><path
         inkscape:connector-curvature="0"
         class="st0"
         d="m 43.4,12.1 c -3,-1.3 -5.4,-4.5 -9.5,-4.5 -3.1,0 -7.8,3.2 -7.8,3.2 v 3.9 c 0,0 4.8,-3.2 7.8,-3.2 4.1,0 6.5,3.2 9.5,4.5 0.8,0.4 1.7,0.6 2.6,0.6 4.4,-0.1 8.5,-2.7 8.5,-2.7 v -4 c 0,0 -4,2.7 -8.5,2.7 -0.9,0.1 -1.8,-0.2 -2.6,-0.5 z"
         id="path4"
         style="fill:#6d6f71;fill-opacity:1" /><path
         inkscape:connector-curvature="0"
         class="st0"
         d="M 46,5.1 C 45.1,5.1 44.2,4.9 43.4,4.5 40.4,3.2 38,0 33.9,0 30.8,0 26.1,3.2 26.1,3.2 v 3.9 c 0,0 4.8,-3.2 7.8,-3.2 4.1,0 6.5,3.2 9.5,4.5 C 44.2,8.8 45.1,9 46,9 50.4,8.9 54.5,6.3 54.5,6.3 v -4 c 0,0 -4,2.7 -8.5,2.8"
         id="path6"
         style="fill:#6d6f71;fill-opacity:1" /></g><path
       id="path927"
       d="m 116.09862,56.421608 v -1.157333 l 2.688,-0.242667 v -10.528 l -2.688,-0.242666 v -1.157334 h 7.09334 v 1.157334 l -2.72534,0.242666 v 10.528 l 2.72534,0.242667 v 1.157333 z"
       inkscape:connector-curvature="0"
       style="fill:#6d6f71;fill-opacity:1" /><path
       id="path929"
       d="M 126.73133,56.421608 V 46.416275 h 1.344 l 0.24267,1.474667 h 0.0933 q 0.42934,-0.858667 1.26934,-1.250667 0.85866,-0.410667 1.99733,-0.410667 1.512,0 2.42667,0.858667 0.93333,0.84 0.93333,2.650667 v 6.682666 h -1.68 v -6.384 q 0,-1.269333 -0.52267,-1.848 -0.504,-0.597333 -1.64266,-0.597333 -1.53067,0 -2.16534,0.970667 -0.616,0.970666 -0.616,2.725333 v 5.133333 z"
       inkscape:connector-curvature="0"
       style="fill:#6d6f71;fill-opacity:1" /><path
       id="path931"
       d="m 141.54537,56.608275 q -1.848,0 -2.968,-1.288 -1.12,-1.288 -1.12,-3.957334 0,-2.482666 1.064,-3.807999 1.064,-1.325334 3.21067,-1.325334 1.04533,0 1.71733,0.410667 0.672,0.410667 1.02667,1.045333 h 0.112 q -0.0373,-0.261333 -0.0747,-0.690666 -0.0373,-0.429334 -0.0373,-0.784 v -3.976 h 1.66133 v 14.186666 h -1.38133 l -0.18667,-1.344 h -0.0747 q -0.41067,0.672 -1.12,1.101333 -0.69067,0.429334 -1.82934,0.429334 z m 0.31734,-1.362667 q 1.32533,0 1.96,-0.914667 0.65333,-0.933333 0.65333,-2.52 v -0.373333 q 0,-1.101333 -0.24267,-1.96 -0.24266,-0.877333 -0.80266,-1.381333 -0.56,-0.504 -1.512,-0.504 -1.30667,0 -2.03467,0.970667 -0.70933,0.970666 -0.70933,2.967999 0,3.714667 2.688,3.714667 z"
       inkscape:connector-curvature="0"
       style="fill:#6d6f71;fill-opacity:1" /><path
       id="path933"
       d="m 152.49542,56.608275 q -1.77334,0 -2.632,-0.877334 -0.84,-0.877333 -0.84,-2.650666 v -6.664 h 1.68 v 6.402666 q 0,1.194667 0.48533,1.810667 0.504,0.616 1.71733,0.616 1.54934,0 2.14667,-0.970667 0.59733,-0.970666 0.59733,-2.706666 v -5.152 h 1.68 v 10.005333 h -1.344 l -0.24266,-1.344 h -0.0933 q -0.52266,0.84 -1.32533,1.194667 -0.784,0.336 -1.82933,0.336 z"
       inkscape:connector-curvature="0"
       style="fill:#6d6f71;fill-opacity:1" /><path
       id="path935"
       d="m 164.02412,56.608275 q -0.93333,0 -1.792,-0.168 -0.84,-0.168 -1.456,-0.466667 v -1.549333 q 0.65334,0.298666 1.43734,0.56 0.80266,0.242666 1.904,0.242666 1.232,0 1.736,-0.373333 0.52266,-0.392 0.52266,-1.12 0,-0.392 -0.18666,-0.634667 -0.168,-0.261333 -0.672,-0.522666 -0.504,-0.261334 -1.47467,-0.672 -0.97067,-0.410667 -1.66133,-0.784 -0.69067,-0.392 -1.064,-0.896 -0.37334,-0.522667 -0.37334,-1.325333 0,-1.325334 1.008,-1.997334 1.02667,-0.672 2.83734,-0.672 0.82133,0 1.568,0.149334 0.74666,0.149333 1.54933,0.485333 l -0.504,1.306667 q -0.74667,-0.317334 -1.38133,-0.429334 -0.616,-0.112 -1.232,-0.112 -1.15734,0 -1.69867,0.298667 -0.52267,0.298667 -0.52267,0.933333 0,0.410667 0.224,0.690667 0.24267,0.28 0.76534,0.541333 0.54133,0.261334 1.41866,0.634667 0.98934,0.429333 1.68,0.784 0.69067,0.336 1.04534,0.84 0.35466,0.485333 0.35466,1.344 0,1.418666 -1.02666,2.165333 -1.008,0.746667 -3.00534,0.746667 z"
       inkscape:connector-curvature="0"
       style="fill:#6d6f71;fill-opacity:1" /><path
       id="path937"
       d="m 177.51283,56.608275 q -1.064,0 -1.92267,-0.28 -0.84,-0.28 -1.32533,-0.989334 -0.48533,-0.709333 -0.48533,-1.96 v -5.562666 h -2.72534 v -1.157333 l 2.72534,-0.298667 0.336,-2.613333 h 1.344 v 2.669333 h 3.90133 v 1.4 h -3.90133 v 5.245333 q 0,1.138667 0.504,1.661333 0.504,0.522667 1.66133,0.522667 0.48533,0 1.04533,-0.09333 0.56,-0.09333 0.97067,-0.186667 v 1.344 q -0.448,0.112 -0.98933,0.205333 -0.54134,0.09333 -1.13867,0.09333 z"
       inkscape:connector-curvature="0"
       style="fill:#6d6f71;fill-opacity:1" /><path
       id="path939"
       d="m 182.35887,56.421608 v -1.12 l 3.04267,-0.28 v -7.205333 l -2.744,-0.242667 v -1.157333 h 4.088 l 0.224,1.829333 h 0.0747 q 0.52266,-0.970666 1.13866,-1.493333 0.63467,-0.522667 1.66134,-0.522667 0.63466,0 1.12,0.112 0.504,0.112 0.91466,0.298667 l -0.448,1.474667 q -0.29866,-0.168 -0.70933,-0.28 -0.41067,-0.130667 -0.87733,-0.130667 -0.80267,0 -1.41867,0.504 -0.616,0.504 -0.97067,1.344 -0.35466,0.84 -0.35466,1.848 v 3.621333 l 2.912,0.28 v 1.12 z"
       inkscape:connector-curvature="0"
       style="fill:#6d6f71;fill-opacity:1" /><path
       id="path941"
       d="m 198.12491,44.605608 q -0.48533,0 -0.84,-0.28 -0.336,-0.298666 -0.336,-0.896 0,-0.616 0.336,-0.896 0.35467,-0.298666 0.84,-0.298666 0.46667,0 0.82133,0.298666 0.35467,0.28 0.35467,0.896 0,0.597334 -0.35467,0.896 -0.35466,0.28 -0.82133,0.28 z m -4.23733,11.816 v -1.12 l 3.56533,-0.28 v -7.205333 l -3.26667,-0.242667 v -1.157333 h 4.94667 v 8.605333 l 3.34133,0.28 v 1.12 z"
       inkscape:connector-curvature="0"
       style="fill:#6d6f71;fill-opacity:1" /><path
       id="path943"
       d="m 208.17896,56.608275 q -1.47467,0 -2.38934,-0.728 -0.896,-0.728 -0.896,-2.202667 0,-1.624 1.15734,-2.426667 1.176,-0.802666 3.37866,-0.858666 l 2.14667,-0.056 v -0.410667 q 0,-1.344 -0.672,-1.829333 -0.672,-0.504 -1.81067,-0.504 -0.80266,0 -1.53066,0.205333 -0.728,0.205334 -1.38134,0.578667 l -0.57866,-1.269333 q 0.70933,-0.354667 1.568,-0.616 0.87733,-0.261334 2.016,-0.261334 1.86666,0 2.89333,0.858667 1.02667,0.84 1.02667,2.632 v 6.701333 h -1.344 l -0.18667,-1.381333 h -0.0747 q -0.616,0.784 -1.43733,1.176 -0.80267,0.392 -1.88533,0.392 z m 0.28,-1.362667 q 0.84,0 1.54933,-0.298667 0.70933,-0.317333 1.13867,-0.933333 0.42933,-0.616 0.42933,-1.586667 v -0.896 l -1.792,0.056 q -1.792,0.056 -2.55733,0.578667 -0.74667,0.522667 -0.74667,1.456 0,0.858667 0.54133,1.250667 0.54134,0.373333 1.43734,0.373333 z"
       inkscape:connector-curvature="0"
       style="fill:#6d6f71;fill-opacity:1" /><path
       inkscape:connector-curvature="0"
       id="path953"
       d="m 114.41862,75.754941 4.33067,-13.384 h 1.77333 l 4.34934,13.384 h -1.71734 l -1.26933,-4.088 h -4.49867 l -1.26933,4.088 z m 4.66667,-9.557333 -1.232,3.975999 h 3.56533 l -1.232,-3.975999 q -0.0933,-0.317334 -0.26133,-0.896 -0.168,-0.578667 -0.29867,-1.157334 -0.112,0.578667 -0.28,1.176 -0.168,0.578667 -0.26133,0.877334 z"
       style="fill:#6d6f71;fill-opacity:1" /><path
       inkscape:connector-curvature="0"
       id="path955"
       d="m 126.39534,75.754941 v -1.12 l 3.04266,-0.28 v -7.205334 l -2.744,-0.242666 v -1.157333 h 4.088 l 0.224,1.829333 h 0.0747 q 0.52266,-0.970667 1.13866,-1.493333 0.63467,-0.522667 1.66134,-0.522667 0.63466,0 1.12,0.112 0.504,0.112 0.91466,0.298667 l -0.448,1.474666 q -0.29866,-0.168 -0.70933,-0.28 -0.41067,-0.130667 -0.87733,-0.130667 -0.80267,0 -1.41867,0.504 -0.616,0.504 -0.97067,1.344 -0.35466,0.84 -0.35466,1.848 v 3.621334 l 2.912,0.28 v 1.12 z"
       style="fill:#6d6f71;fill-opacity:1" /><path
       inkscape:connector-curvature="0"
       id="path957"
       d="m 141.5827,80.328274 q -1.04533,0 -1.94133,-0.205334 -0.896,-0.186666 -1.66133,-0.504 v -1.493333 q 0.74666,0.429333 1.71733,0.634667 0.98933,0.224 1.82933,0.224 1.69867,0 2.37067,-0.802667 0.672,-0.784 0.672,-2.165333 v -0.354667 q 0,-0.224 0,-0.429333 0.0187,-0.205333 0.056,-0.634667 h -0.0747 q -0.52266,0.765334 -1.232,1.064 -0.69066,0.28 -1.68,0.28 -1.99733,0 -3.09866,-1.344 -1.08267,-1.362666 -1.08267,-3.789333 0,-2.445333 1.08267,-3.845333 1.10133,-1.4 3.00533,-1.4 1.008,0 1.69867,0.336 0.69066,0.317333 1.232,1.082666 h 0.0933 l 0.224,-1.231999 h 1.344 v 10.266666 q 0,2.146666 -1.10133,3.229333 -1.10134,1.082667 -3.45334,1.082667 z m 0.37334,-5.749333 q 1.25066,0 1.96,-0.802667 0.70933,-0.821333 0.70933,-2.613333 v -0.392 q 0,-2.034667 -0.74667,-2.930667 -0.728,-0.914667 -1.97866,-0.914667 -1.41867,0 -2.072,1.008 -0.65334,0.989334 -0.65334,2.818667 0,1.866667 0.672,2.856 0.69067,0.970667 2.10934,0.970667 z"
       style="fill:#6d6f71;fill-opacity:1" /><path
       inkscape:connector-curvature="0"
       id="path959"
       d="m 153.91408,75.941607 q -2.408,0 -3.78933,-1.325333 -1.38133,-1.325333 -1.38133,-3.826667 0,-1.642666 0.59733,-2.8 0.59733,-1.176 1.66133,-1.791999 1.064,-0.634667 2.48267,-0.634667 1.96,0 3.08,1.269333 1.13867,1.269333 1.13867,3.472 v 0.765333 h -7.26134 q 0.0373,1.306667 0.48534,2.072 0.46666,0.765334 1.25066,1.101334 0.80267,0.317333 1.848,0.317333 0.80267,0 1.60534,-0.224 0.80266,-0.224 1.624,-0.597333 v 1.493333 q -0.85867,0.373333 -1.71734,0.541333 -0.85866,0.168 -1.624,0.168 z m -3.43466,-6.216 h 5.544 q -0.056,-1.306666 -0.70934,-2.053333 -0.63466,-0.746667 -1.82933,-0.746667 -1.26933,0 -2.03467,0.765334 -0.76533,0.746666 -0.97066,2.034666 z"
       style="fill:#6d6f71;fill-opacity:1" /><path
       inkscape:connector-curvature="0"
       id="path961"
       d="M 160.30946,75.754941 V 65.749608 h 1.344 l 0.24267,1.474666 h 0.0933 q 0.42933,-0.858667 1.26933,-1.250666 0.85867,-0.410667 1.99734,-0.410667 1.512,0 2.42666,0.858666 0.93334,0.84 0.93334,2.650667 v 6.682667 h -1.68 v -6.384 q 0,-1.269334 -0.52267,-1.848 -0.504,-0.597334 -1.64267,-0.597334 -1.53066,0 -2.16533,0.970667 -0.616,0.970667 -0.616,2.725333 v 5.133334 z"
       style="fill:#6d6f71;fill-opacity:1" /><path
       inkscape:connector-curvature="0"
       id="path963"
       d="m 177.51283,75.941607 q -1.064,0 -1.92267,-0.28 -0.84,-0.28 -1.32533,-0.989333 -0.48533,-0.709333 -0.48533,-1.96 v -5.562667 h -2.72534 v -1.157333 l 2.72534,-0.298666 0.336,-2.613334 h 1.344 v 2.669334 h 3.90133 v 1.399999 h -3.90133 v 5.245334 q 0,1.138666 0.504,1.661333 0.504,0.522667 1.66133,0.522667 0.48533,0 1.04533,-0.09333 0.56,-0.09333 0.97067,-0.186666 v 1.344 q -0.448,0.112 -0.98933,0.205333 -0.54134,0.09333 -1.13867,0.09333 z"
       style="fill:#6d6f71;fill-opacity:1" /><path
       inkscape:connector-curvature="0"
       id="path965"
       d="m 186.93221,63.938941 q -0.48534,0 -0.84,-0.28 -0.336,-0.298667 -0.336,-0.896 0,-0.616 0.336,-0.896 0.35466,-0.298667 0.84,-0.298667 0.46666,0 0.82133,0.298667 0.35467,0.28 0.35467,0.896 0,0.597333 -0.35467,0.896 -0.35467,0.28 -0.82133,0.28 z m -4.23734,11.816 v -1.12 l 3.56534,-0.28 v -7.205334 l -3.26667,-0.242666 v -1.157333 h 4.94667 v 8.605333 l 3.34133,0.28 v 1.12 z"
       style="fill:#6d6f71;fill-opacity:1" /><path
       inkscape:connector-curvature="0"
       id="path967"
       d="M 193.88759,75.754941 V 65.749608 h 1.34399 l 0.24267,1.474666 h 0.0933 q 0.42934,-0.858667 1.26934,-1.250666 0.85866,-0.410667 1.99733,-0.410667 1.512,0 2.42667,0.858666 0.93333,0.84 0.93333,2.650667 v 6.682667 h -1.68 v -6.384 q 0,-1.269334 -0.52267,-1.848 -0.504,-0.597334 -1.64266,-0.597334 -1.53067,0 -2.16534,0.970667 -0.616,0.970667 -0.616,2.725333 v 5.133334 z"
       style="fill:#6d6f71;fill-opacity:1" /><path
       inkscape:connector-curvature="0"
       id="path969"
       d="m 208.17895,75.941607 q -1.47466,0 -2.38933,-0.728 -0.896,-0.728 -0.896,-2.202666 0,-1.624 1.15733,-2.426667 1.176,-0.802667 3.37867,-0.858667 l 2.14667,-0.056 v -0.410666 q 0,-1.344 -0.672,-1.829334 -0.672,-0.504 -1.81067,-0.504 -0.80267,0 -1.53067,0.205334 -0.728,0.205333 -1.38133,0.578666 l -0.57867,-1.269333 q 0.70934,-0.354666 1.568,-0.616 0.87734,-0.261333 2.016,-0.261333 1.86667,0 2.89334,0.858666 1.02666,0.84 1.02666,2.632 v 6.701334 h -1.344 l -0.18666,-1.381334 h -0.0747 q -0.616,0.784 -1.43733,1.176 -0.80267,0.392 -1.88534,0.392 z m 0.28,-1.362666 q 0.84,0 1.54934,-0.298667 0.70933,-0.317333 1.13866,-0.933333 0.42934,-0.616 0.42934,-1.586667 v -0.896 l -1.792,0.056 q -1.792,0.056 -2.55734,0.578667 -0.74666,0.522666 -0.74666,1.456 0,0.858666 0.54133,1.250666 0.54133,0.373334 1.43733,0.373334 z"
       style="fill:#6d6f71;fill-opacity:1" /></g></g></svg>