<?xml version="1.0" encoding="utf-8"?>
<!-- Generator: Adobe Illustrator 19.0.0, SVG Export Plug-In . SVG Version: 6.00 Build 0)  -->
<svg version="1.1" id="Layer_1" xmlns="http://www.w3.org/2000/svg" xmlns:xlink="http://www.w3.org/1999/xlink" x="0px" y="0px"
	 viewBox="0 0 106.1 69.7" style="enable-background:new 0 0 106.1 69.7;" xml:space="preserve">
<style type="text/css">
	.st0{opacity:0.58;fill:#1EA5DE;}
	.st1{fill:#1EA5DE;}
	.st2{opacity:0.75;}
	.st3{opacity:0.75;fill:#23BAEC;}
</style>
<path class="st0" d="M68.9,21.3c0.9,6.9-5,12.8-11.9,11.9c-4.7-0.6-8.5-4.4-9.1-9.1c-0.9-6.9,5-12.8,11.9-11.9
	C64.5,12.7,68.3,16.6,68.9,21.3z"/>
<path class="st0" d="M54.9,21.3c0.9,6.9-5,12.8-11.9,11.9c-4.7-0.6-8.5-4.4-9.1-9.1c-0.9-6.9,5-12.8,11.9-11.9
	C50.5,12.7,54.3,16.6,54.9,21.3z"/>
<path class="st0" d="M52.7,21.1C45.8,22,40,16.2,40.9,9.2c0.6-4.7,4.4-8.5,9.1-9.1C56.9-0.8,62.8,5,61.9,12
	C61.3,16.7,57.5,20.5,52.7,21.1z"/>
<g>
	<g id="XMLID_338_">
		<g id="XMLID_378_">
			<polygon id="XMLID_379_" class="st1" points="11.2,69.6 11.2,65.9 11.6,65.9 11.6,69.2 13.7,69.2 13.7,69.6 			"/>
		</g>
		<g id="XMLID_374_">
			<path id="XMLID_375_" class="st1" d="M20.9,69.6l-0.5-1l-2,0l-0.4,1l-0.3,0h-0.1l1.7-3.7l0.3,0l1.8,3.7H20.9z M20.2,68.2
				l-0.8-1.8l-0.8,1.8H20.2z"/>
		</g>
		<g id="XMLID_369_">
			<path id="XMLID_370_" class="st1" d="M25.4,69.6v-3.7h1.5c0.4,0,0.8,0.1,1,0.3c0.2,0.2,0.2,0.4,0.2,0.6c0,0.4-0.2,0.7-0.5,0.8
				c0.4,0.2,0.7,0.5,0.7,0.9c0,0.6-0.5,1-1.3,1H25.4z M27,69.2c0.6,0,0.9-0.3,0.9-0.7c0-0.5-0.6-0.6-1-0.6h-1.1v1.3H27z M26.9,67.5
				c0.5,0,0.8-0.3,0.8-0.7c0-0.4-0.3-0.6-0.8-0.6h-1.1v1.3H26.9z"/>
		</g>
		<g id="XMLID_365_">
			<path id="XMLID_366_" class="st1" d="M34.3,69.7c-1.1,0-1.8-0.8-1.8-1.9c0-0.9,0.7-1.9,1.9-1.9c1.1,0,1.8,0.8,1.8,1.9
				C36.1,68.7,35.4,69.7,34.3,69.7z M34.3,66.2c-0.8,0-1.4,0.7-1.4,1.5c0,0.9,0.6,1.5,1.4,1.5c0.8,0,1.4-0.7,1.4-1.5
				C35.7,66.9,35.1,66.2,34.3,66.2z"/>
		</g>
		<g id="XMLID_361_">
			<path id="XMLID_362_" class="st1" d="M43.1,69.6l-1.2-1.5l-1,0v1.5h-0.4v-3.7H42c0.4,0,0.8,0.1,1,0.4c0.2,0.2,0.3,0.4,0.3,0.7
				c0,0.6-0.4,1-1,1.1l1.2,1.5H43.1z M42,67.7c0.6,0,1-0.3,1-0.7c0-0.5-0.4-0.7-0.9-0.7h-1.1v1.5H42z"/>
		</g>
		<g id="XMLID_357_">
			<path id="XMLID_358_" class="st1" d="M50.7,69.6l-0.5-1l-2,0l-0.4,1l-0.3,0h-0.1l1.7-3.7l0.3,0l1.8,3.7H50.7z M50,68.2l-0.8-1.8
				l-0.8,1.8H50z"/>
		</g>
		<g id="XMLID_355_">
			<polygon id="XMLID_356_" class="st1" points="55.7,69.6 55.7,66.3 54.5,66.3 54.5,65.9 57.3,65.9 57.3,66.3 56.1,66.3 56.1,69.6 
							"/>
		</g>
		<g id="XMLID_351_">
			<path id="XMLID_352_" class="st1" d="M63,69.7c-1.1,0-1.8-0.8-1.8-1.9c0-0.9,0.7-1.9,1.9-1.9c1.1,0,1.8,0.8,1.8,1.9
				C64.8,68.7,64.1,69.7,63,69.7z M63,66.2c-0.8,0-1.4,0.7-1.4,1.5c0,0.9,0.6,1.5,1.4,1.5c0.8,0,1.4-0.7,1.4-1.5
				C64.4,66.9,63.8,66.2,63,66.2z"/>
		</g>
		<g id="XMLID_347_">
			<path id="XMLID_348_" class="st1" d="M71.7,69.6l-1.2-1.5l-1,0v1.5h-0.4v-3.7h1.6c0.4,0,0.8,0.1,1,0.4c0.2,0.2,0.3,0.4,0.3,0.7
				c0,0.6-0.4,1-1,1.1l1.2,1.5H71.7z M70.6,67.7c0.6,0,1-0.3,1-0.7c0-0.5-0.4-0.7-0.9-0.7h-1.1v1.5H70.6z"/>
		</g>
		<g id="XMLID_345_">
			<rect id="XMLID_346_" x="76.4" y="65.9" class="st1" width="0.4" height="3.7"/>
		</g>
		<g id="XMLID_341_">
			<path id="XMLID_342_" class="st1" d="M82.9,69.7c-1.1,0-1.8-0.8-1.8-1.9c0-0.9,0.7-1.9,1.9-1.9c1.1,0,1.8,0.8,1.8,1.9
				C84.8,68.7,84.1,69.7,82.9,69.7z M82.9,66.2c-0.8,0-1.4,0.7-1.4,1.5c0,0.9,0.6,1.5,1.4,1.5c0.8,0,1.4-0.7,1.4-1.5
				C84.4,66.9,83.8,66.2,82.9,66.2z"/>
		</g>
		<g id="XMLID_339_">
			<path id="XMLID_340_" class="st1" d="M90.3,69.6c-0.6,0-1-0.2-1.5-0.6l-0.1,0l0.3-0.3l0.1,0c0.4,0.4,0.7,0.5,1.2,0.5
				c0.5,0,0.8-0.3,0.8-0.6c0-0.3-0.2-0.5-0.9-0.7c-0.9-0.2-1.3-0.5-1.3-1.1c0-0.6,0.5-1,1.2-1c0.5,0,0.9,0.1,1.3,0.4l0.1,0l-0.3,0.3
				l-0.1,0c-0.3-0.3-0.6-0.4-1-0.4c-0.5,0-0.8,0.3-0.8,0.6c0,0.3,0.2,0.5,1,0.7c0.9,0.2,1.2,0.5,1.2,1
				C91.6,69.2,91.1,69.6,90.3,69.6z"/>
		</g>
	</g>
</g>
<g>
	<g class="st2">
		<path class="st3" d="M65.5,50L65.5,50c1.1,0,2,0.3,2.9,1c0.2,0.1,0.4,0.3,0.6,0.5c0.3,0.3,0.4,0.5,0.5,0.6
			c0.1,0.1,0.2,0.2,0.2,0.2L68,53.4h0c-0.1-0.1-0.2-0.3-0.4-0.5C67,52.3,66.3,52,65.5,52c-0.7,0-1.4,0.3-2,0.8
			c-0.2,0.2-0.4,0.4-0.4,0.5c-0.4,0.6-0.6,1.2-0.6,1.9c0,0.8,0.2,1.4,0.7,2.1c0.2,0.2,0.3,0.3,0.5,0.5c0.6,0.4,1.2,0.6,1.8,0.6
			c0.6,0,1.2-0.2,1.7-0.6c0.1-0.1,0.3-0.2,0.5-0.4c0.1-0.1,0.2-0.3,0.3-0.4h0l1.7,1.1c-0.1,0.2-0.3,0.4-0.5,0.6
			c-0.2,0.3-0.4,0.4-0.5,0.5c-0.2,0.2-0.4,0.3-0.6,0.4c-0.8,0.5-1.7,0.8-2.6,0.8h-0.1c-1,0-1.9-0.3-2.7-0.8
			c-0.2-0.1-0.3-0.2-0.5-0.3c-0.3-0.2-0.4-0.4-0.6-0.6c-0.3-0.3-0.5-0.6-0.6-0.9c-0.1-0.2-0.3-0.5-0.4-0.9c-0.2-0.6-0.3-1.1-0.3-1.6
			v-0.2c0-0.8,0.2-1.6,0.6-2.4c0.1-0.2,0.3-0.4,0.4-0.7c0.1-0.2,0.3-0.4,0.5-0.6c0.3-0.3,0.5-0.5,0.7-0.6C63.5,50.3,64.5,50,65.5,50
			z"/>
		<path class="st3" d="M76.4,50c1.1,0,2.2,0.4,3.1,1.1c0.1,0.1,0.3,0.3,0.6,0.5c0.5,0.5,0.8,1.1,1,1.7c0.2,0.6,0.4,1.3,0.4,2
			c0,0.9-0.2,1.7-0.6,2.5c-0.1,0.3-0.3,0.6-0.6,0.9c-0.3,0.3-0.5,0.5-0.7,0.7c-0.2,0.2-0.4,0.3-0.5,0.4c-0.8,0.5-1.7,0.8-2.6,0.8
			h-0.1c-0.9,0-1.9-0.3-2.7-0.8c-0.2-0.1-0.3-0.2-0.4-0.4c-0.3-0.2-0.5-0.4-0.6-0.6c-0.1-0.2-0.3-0.3-0.4-0.5
			c-0.1-0.2-0.3-0.4-0.4-0.6c-0.3-0.7-0.5-1.4-0.5-2.2v-0.2c0-0.8,0.2-1.6,0.6-2.4c0.1-0.2,0.2-0.4,0.4-0.7c0.1-0.2,0.3-0.4,0.5-0.6
			c0.3-0.3,0.6-0.5,0.7-0.6C74.4,50.3,75.4,50,76.4,50z M73.3,55.2c0,0.8,0.2,1.4,0.7,2.1c0.2,0.2,0.4,0.4,0.5,0.5
			c0.6,0.4,1.1,0.6,1.8,0.6c0.8,0,1.5-0.3,2.1-0.9c0.2-0.3,0.4-0.5,0.5-0.7c0.3-0.5,0.4-1,0.4-1.6v0c0-0.8-0.3-1.5-0.8-2.2
			c-0.2-0.3-0.4-0.4-0.5-0.4c-0.1-0.1-0.2-0.2-0.3-0.2c-0.5-0.2-0.9-0.4-1.4-0.4c-0.7,0-1.4,0.3-2,0.8C74.1,53,74,53.2,74,53.3
			C73.5,53.9,73.3,54.5,73.3,55.2z"/>
		<path class="st3" d="M88.4,50c1.1,0,2.2,0.4,3.1,1.1c0.1,0.1,0.3,0.3,0.6,0.5c0.5,0.5,0.8,1.1,1,1.7c0.2,0.6,0.4,1.3,0.4,2
			c0,0.9-0.2,1.7-0.6,2.5c-0.1,0.3-0.3,0.6-0.6,0.9c-0.3,0.3-0.5,0.5-0.7,0.7c-0.2,0.2-0.4,0.3-0.5,0.4c-0.8,0.5-1.7,0.8-2.6,0.8
			h-0.1c-0.9,0-1.9-0.3-2.7-0.8c-0.2-0.1-0.3-0.2-0.4-0.4c-0.3-0.2-0.5-0.4-0.6-0.6c-0.1-0.2-0.3-0.3-0.4-0.5
			c-0.1-0.2-0.3-0.4-0.4-0.6c-0.3-0.7-0.5-1.4-0.5-2.2v-0.2c0-0.8,0.2-1.6,0.6-2.4c0.1-0.2,0.2-0.4,0.4-0.7c0.1-0.2,0.3-0.4,0.5-0.6
			c0.3-0.3,0.6-0.5,0.7-0.6C86.4,50.3,87.4,50,88.4,50z M85.4,55.2c0,0.8,0.2,1.4,0.7,2.1c0.2,0.2,0.4,0.4,0.5,0.5
			c0.6,0.4,1.1,0.6,1.8,0.6c0.8,0,1.5-0.3,2.1-0.9c0.2-0.3,0.4-0.5,0.5-0.7c0.3-0.5,0.4-1,0.4-1.6v0c0-0.8-0.3-1.5-0.8-2.2
			c-0.2-0.3-0.4-0.4-0.5-0.4c-0.1-0.1-0.2-0.2-0.3-0.2c-0.5-0.2-0.9-0.4-1.4-0.4c-0.7,0-1.4,0.3-2,0.8C86.2,53,86,53.2,86,53.3
			C85.6,53.9,85.4,54.5,85.4,55.2z"/>
		<path class="st3" d="M101,50c1,0,1.9,0.2,2.7,0.7c0.2,0.1,0.5,0.3,0.8,0.6c0.3,0.3,0.4,0.4,0.5,0.5c0.2,0.2,0.3,0.4,0.4,0.6
			c0.5,0.8,0.7,1.7,0.7,2.7c0,1.1-0.4,2.2-1.1,3.2c-0.1,0.1-0.3,0.3-0.5,0.6l-0.2,0.2c-1,0.8-2.1,1.2-3.3,1.2
			c-0.9,0-1.7-0.3-2.4-0.8c-0.1-0.1-0.3-0.2-0.5-0.5L98,59.1v5.6h-2h0V50.2l0,0h2v1.1c0.3-0.3,0.4-0.4,0.5-0.4
			c0.2-0.2,0.4-0.3,0.5-0.4c0.2-0.1,0.4-0.2,0.6-0.3c0.2,0,0.4-0.1,0.8-0.2C100.6,50,100.8,50,101,50z M98,55v0.4
			c0,0.2,0.1,0.5,0.2,0.8c0.1,0.2,0.2,0.4,0.3,0.6c0.1,0.2,0.3,0.3,0.4,0.6c0.2,0.2,0.4,0.3,0.4,0.4c0.2,0.1,0.3,0.2,0.4,0.3
			c0.4,0.2,0.8,0.3,1.2,0.3h0.1c0.6,0,1.2-0.2,1.8-0.6c0.1-0.1,0.2-0.2,0.4-0.4c0.3-0.4,0.6-0.8,0.7-1.2c0.1-0.3,0.1-0.6,0.1-1
			c0-0.8-0.3-1.5-0.8-2.1c-0.2-0.2-0.4-0.4-0.4-0.4c-0.6-0.4-1.2-0.7-1.8-0.7H101c-0.4,0-0.8,0.1-1.2,0.3c-0.2,0.1-0.5,0.3-0.7,0.5
			c-0.3,0.3-0.4,0.4-0.5,0.5c-0.1,0.2-0.2,0.3-0.3,0.4c-0.1,0.1-0.1,0.3-0.2,0.5C98.1,54.6,98,54.8,98,55z"/>
	</g>
	<g>
		<path class="st1" d="M6.2,44.8h0.6l0,0v2l0,0H6.3c-0.9,0-1.5,0.4-1.9,1.3c-0.2,0.5-0.4,1.2-0.4,2h2.8l0,0v2l0,0H4v8h0h-2v-8H0l0,0
			v-2l0,0h1.9v0c0-1.8,0.5-3.2,1.5-4.2c0.4-0.3,0.8-0.6,1.1-0.8C5.1,45,5.7,44.8,6.2,44.8z"/>
		<path class="st1" d="M12.6,50c1.2,0,2.2,0.4,3,1.3v-1.1l0,0h2l0,0v10l0,0h-2l0,0v-1c-0.8,0.9-1.8,1.3-3,1.3h0
			c-1.5,0-2.8-0.6-3.9-1.8c-0.8-1-1.2-2.1-1.2-3.4v0c0-1.5,0.6-2.9,1.8-4C10.2,50.4,11.3,50,12.6,50z M9.5,55.2c0,1.1,0.5,2,1.4,2.7
			c0.5,0.3,1,0.5,1.5,0.5h0.2c0.7,0,1.3-0.3,1.9-0.8c0.7-0.7,1-1.5,1-2.4v0c0-1.1-0.5-2-1.4-2.7c-0.5-0.3-1-0.5-1.5-0.5h-0.2
			c-0.8,0-1.6,0.4-2.3,1.2C9.7,53.8,9.5,54.5,9.5,55.2z"/>
		<path class="st1" d="M25.1,50.1h0.3c0.7,0,1.4,0.2,2.1,0.6v0c-0.3,1.3-0.5,2-0.5,2.1c-0.7-0.4-1.3-0.7-1.8-0.7h-0.2
			c-0.7,0-1.3,0.2-1.8,0.7c-0.4,0.5-0.6,1.4-0.6,2.7v4.6l0,0h-2l0,0v-9.8l0,0h2l0,0V51C23.5,50.4,24.3,50.1,25.1,50.1z"/>
		<path class="st1" d="M34,50.1L34,50.1c1.4,0,2.5,0.4,3.4,1.2c0.8-0.8,1.9-1.2,3.3-1.2H41c1.8,0,3.1,0.7,3.9,2.1
			c0.3,0.5,0.4,1.1,0.4,1.6v6.3l0,0h-2l0,0v-6.3c0-0.8-0.4-1.3-1.3-1.6c-0.3-0.1-0.6-0.1-1-0.1h-0.4c-1.1,0-1.8,0.4-2.1,1.1
			c-0.1,0.2-0.1,0.4-0.1,0.7v6.2l0,0h-2l0,0v-6c0-0.7-0.2-1.3-0.7-1.5c-0.4-0.3-0.9-0.4-1.5-0.4H34c-0.8,0-1.5,0.1-1.8,0.4
			c-0.5,0.3-0.7,0.8-0.7,1.5v6l0,0h-2l0,0v-9.9l0,0h2l0,0v0.6h0c0.4-0.2,0.8-0.4,1.4-0.5C33.2,50.2,33.6,50.1,34,50.1z"/>
		<path class="st1" d="M52.9,50c1.2,0,2.2,0.4,3,1.3v-1.1l0,0h2l0,0v10l0,0h-2l0,0v-1c-0.8,0.9-1.8,1.3-3,1.3h0
			c-1.5,0-2.8-0.6-3.9-1.8c-0.8-1-1.2-2.1-1.2-3.4v0c0-1.5,0.6-2.9,1.8-4C50.6,50.4,51.7,50,52.9,50z M49.8,55.2
			c0,1.1,0.5,2,1.4,2.7c0.5,0.3,1,0.5,1.5,0.5H53c0.7,0,1.3-0.3,1.9-0.8c0.7-0.7,1-1.5,1-2.4v0c0-1.1-0.5-2-1.4-2.7
			c-0.5-0.3-1-0.5-1.5-0.5h-0.2c-0.8,0-1.6,0.4-2.3,1.2C50,53.8,49.8,54.5,49.8,55.2z"/>
	</g>
</g>
</svg>
