<?xml version="1.0" encoding="utf-8"?>
<!-- Generator: Adobe Illustrator 21.0.0, SVG Export Plug-In . SVG Version: 6.00 Build 0)  -->
<svg version="1.1" id="Layer_1" xmlns="http://www.w3.org/2000/svg" xmlns:xlink="http://www.w3.org/1999/xlink" x="0px" y="0px"
	 viewBox="0 0 110.2 110.2" style="enable-background:new 0 0 110.2 110.2;" xml:space="preserve">
<style type="text/css">
	.st0{fill:#00ADCA;}
	.st1{fill:none;stroke:#FFFFFF;stroke-width:1.5;stroke-linecap:round;stroke-miterlimit:10;}
	.st2{fill:#FFFFFF;}
	.st3{fill:none;stroke:#FFFFFF;stroke-width:1.5;stroke-miterlimit:10;}
	.st4{fill:none;stroke:#FFFFFF;stroke-width:4;stroke-linecap:round;stroke-miterlimit:10;}
	.st5{fill:#F9F9F9;}
</style>
<g id="Layer_1_1_" inkscape:version="0.92.3 (2405546, 2018-03-11)" sodipodi:docname="step-4.svg" xmlns:cc="http://creativecommons.org/ns#" xmlns:dc="http://purl.org/dc/elements/1.1/" xmlns:inkscape="http://www.inkscape.org/namespaces/inkscape" xmlns:rdf="http://www.w3.org/1999/02/22-rdf-syntax-ns#" xmlns:sodipodi="http://sodipodi.sourceforge.net/DTD/sodipodi-0.dtd" xmlns:svg="http://www.w3.org/2000/svg">
	
		<sodipodi:namedview  bordercolor="#666666" borderopacity="1" gridtolerance="10" guidetolerance="10" id="namedview33" inkscape:current-layer="text838" inkscape:cx="23.686151" inkscape:cy="22.638238" inkscape:pageopacity="0" inkscape:pageshadow="2" inkscape:window-height="1007" inkscape:window-maximized="1" inkscape:window-width="1920" inkscape:window-x="0" inkscape:window-y="39" inkscape:zoom="7.4047189" objecttolerance="10" pagecolor="#ffffff" showgrid="false">
		</sodipodi:namedview>
	<rect id="rect4" x="0.2" y="0.1" class="st0" width="110" height="110"/>
	<g id="g30">
		<path id="path6" class="st1" d="M55.2,91.2C38,91.2,24,77.2,24,60s14-31.2,31.2-31.2s31.2,14,31.2,31.2S72.4,91.2,55.2,91.2z"/>
		<polygon id="polygon12" class="st2" points="64,53.5 62.6,56.6 61.6,56.6 62.1,53.6 62.1,51.9 64,51.9 		"/>
		<rect id="rect14" x="51" y="23.7" class="st2" width="8.1" height="5.7"/>
		<rect id="rect16" x="49.3" y="20.1" class="st2" width="11.4" height="5.7"/>
		<rect id="rect18" x="0.8" y="0.7" class="st3" width="108.7" height="108.7"/>
		<line id="line20" class="st3" x1="55.2" y1="29.4" x2="55.2" y2="33"/>
		<line id="line22" class="st3" x1="55.2" y1="87.6" x2="55.2" y2="91.2"/>
		<line id="line24" class="st3" x1="86.1" y1="60.3" x2="82.5" y2="60.3"/>
		<line id="line26" class="st3" x1="27.9" y1="60.3" x2="24.3" y2="60.3"/>
		<path id="path28" class="st4" d="M56.9,37.4C64.7,38,71.4,42.5,75,49"/>
		<g>
			<path class="st2" d="M51.5,60.3l0.7-6h6.6v2h-4.7l-0.3,2.5c0.6-0.3,1.2-0.4,1.8-0.4c1.1,0,2,0.3,2.7,1c0.6,0.7,1,1.7,1,2.9
				c0,0.8-0.2,1.4-0.5,2.1c-0.3,0.6-0.8,1.1-1.4,1.4c-0.6,0.3-1.3,0.5-2.1,0.5c-0.7,0-1.4-0.1-2-0.4s-1.1-0.7-1.5-1.2
				c-0.4-0.5-0.5-1.1-0.6-1.8h2.3c0,0.5,0.2,0.9,0.5,1.2c0.3,0.3,0.7,0.4,1.2,0.4c0.5,0,0.9-0.2,1.2-0.6c0.3-0.4,0.4-0.9,0.4-1.6
				c0-0.7-0.2-1.2-0.5-1.5s-0.8-0.5-1.4-0.5c-0.6,0-1,0.1-1.4,0.4l-0.2,0.2L51.5,60.3z"/>
		</g>
	</g>
	<g id="text838">
		<path id="path852" inkscape:connector-curvature="0" class="st5" d="M10.4,96.7v-1.6l4.5-7.2h1.3v2.2h-0.8l-3,4.8V95h6.3v1.6
			L10.4,96.7L10.4,96.7z M15.5,98.6v-2.4v-0.7V88h1.8v10.7L15.5,98.6L15.5,98.6z"/>
	</g>
</g>
<g id="Layer_2">
</g>
</svg>
