<?xml version="1.0" encoding="utf-8"?>
<!-- Generator: Adobe Illustrator 19.0.0, SVG Export Plug-In . SVG Version: 6.00 Build 0)  -->
<svg version="1.1" id="Layer_1" xmlns="http://www.w3.org/2000/svg" xmlns:xlink="http://www.w3.org/1999/xlink" x="0px" y="0px"
	 viewBox="-848.2 451.9 110.2 110.2" style="enable-background:new -848.2 451.9 110.2 110.2;" xml:space="preserve">
<style type="text/css">
	.st0{fill:#00ADCA;}
	.st1{fill:none;stroke:#FFFFFF;stroke-width:1.5;stroke-linecap:round;stroke-miterlimit:10;}
	.st2{fill:#FFFFFF;}
	.st3{fill:none;stroke:#FFFFFF;stroke-width:1.5;stroke-miterlimit:10;}
	.st4{fill:none;stroke:#FFFFFF;stroke-width:4;stroke-linecap:round;stroke-miterlimit:10;}
	.st5{fill:#F9F9F9;}
</style>
<g id="Layer_1_1_" xmlns:dc="http://purl.org/dc/elements/1.1/" xmlns:cc="http://creativecommons.org/ns#" xmlns:rdf="http://www.w3.org/1999/02/22-rdf-syntax-ns#" xmlns:svg="http://www.w3.org/2000/svg" xmlns:sodipodi="http://sodipodi.sourceforge.net/DTD/sodipodi-0.dtd" xmlns:inkscape="http://www.inkscape.org/namespaces/inkscape" sodipodi:docname="step-4.svg" inkscape:version="0.92.3 (2405546, 2018-03-11)">
	
		<sodipodi:namedview  id="namedview33" borderopacity="1" pagecolor="#ffffff" bordercolor="#666666" objecttolerance="10" gridtolerance="10" guidetolerance="10" showgrid="false" inkscape:zoom="7.4047189" inkscape:cx="23.686151" inkscape:cy="22.638238" inkscape:window-x="0" inkscape:window-y="39" inkscape:window-maximized="1" inkscape:current-layer="text838" inkscape:window-width="1920" inkscape:pageshadow="2" inkscape:window-height="1007" inkscape:pageopacity="0">
		</sodipodi:namedview>
	<rect id="rect4" x="-848" y="452" class="st0" width="110" height="110"/>
	<g id="g30">
		<path id="path6" class="st1" d="M-793,543.1c-17.2,0-31.2-14-31.2-31.2c0-17.2,14-31.2,31.2-31.2c17.2,0,31.2,14,31.2,31.2
			S-775.8,543.1-793,543.1z"/>
		<polygon id="polygon12" class="st2" points="-784.2,505.4 -785.6,508.5 -786.6,508.5 -786.1,505.5 -786.1,503.8 -784.2,503.8 		
			"/>
		<rect id="rect14" x="-797.2" y="475.6" class="st2" width="8.1" height="5.7"/>
		<rect id="rect16" x="-798.9" y="472" class="st2" width="11.4" height="5.7"/>
		<rect id="rect18" x="-847.4" y="452.6" class="st3" width="108.7" height="108.7"/>
		<line id="line20" class="st3" x1="-793" y1="481.3" x2="-793" y2="484.9"/>
		<line id="line22" class="st3" x1="-793" y1="539.5" x2="-793" y2="543.1"/>
		<line id="line24" class="st3" x1="-762.1" y1="512.2" x2="-765.7" y2="512.2"/>
		<line id="line26" class="st3" x1="-820.3" y1="512.2" x2="-823.9" y2="512.2"/>
		<path id="path28" class="st4" d="M-791.3,489.3c7.8,0.6,14.5,5.1,18.1,11.6"/>
		<g>
			<path class="st2" d="M-789.1,508.3c0,0.6-0.2,1.1-0.5,1.6c-0.3,0.5-0.7,0.8-1.2,1.1c0.6,0.3,1.1,0.7,1.4,1.2
				c0.4,0.5,0.5,1.1,0.5,1.8c0,1.1-0.4,2-1.1,2.6s-1.8,1-3.1,1c-1.3,0-2.3-0.3-3.1-1c-0.8-0.6-1.1-1.5-1.1-2.6
				c0-0.7,0.2-1.3,0.5-1.8c0.4-0.5,0.8-0.9,1.4-1.2c-0.5-0.3-0.9-0.7-1.2-1.1c-0.3-0.5-0.4-1-0.4-1.6c0-1.1,0.4-1.9,1.1-2.5
				c0.7-0.6,1.7-0.9,2.9-0.9c1.2,0,2.2,0.3,2.9,0.9C-789.4,506.4-789.1,507.2-789.1,508.3z M-791.3,513.8c0-0.5-0.2-1-0.5-1.3
				c-0.3-0.3-0.7-0.5-1.3-0.5c-0.5,0-0.9,0.2-1.3,0.5c-0.3,0.3-0.5,0.8-0.5,1.3c0,0.5,0.2,1,0.5,1.3s0.7,0.5,1.3,0.5
				c0.5,0,1-0.2,1.3-0.5S-791.3,514.4-791.3,513.8z M-791.5,508.4c0-0.5-0.1-0.9-0.4-1.2c-0.3-0.3-0.6-0.4-1.1-0.4
				c-0.5,0-0.8,0.1-1.1,0.4c-0.3,0.3-0.4,0.7-0.4,1.2c0,0.5,0.1,0.9,0.4,1.2c0.3,0.3,0.6,0.5,1.1,0.5c0.5,0,0.8-0.2,1.1-0.5
				C-791.7,509.3-791.5,508.9-791.5,508.4z"/>
		</g>
	</g>
	<g id="text838">
		<path id="path852" inkscape:connector-curvature="0" class="st5" d="M-837.8,548.6V547l4.5-7.2h1.3v2.2h-0.8l-3,4.8v0.1h6.3v1.6
			L-837.8,548.6L-837.8,548.6z M-832.7,550.5v-2.4v-0.7v-7.5h1.8v10.7L-832.7,550.5L-832.7,550.5z"/>
	</g>
</g>
<g id="Layer_2">
</g>
</svg>
